<?xml version="1.0" encoding="UTF-8"?>
<svg id="Layer_1" xmlns="http://www.w3.org/2000/svg" version="1.1" viewBox="0 0 250 250">
  <!-- Generator: Adobe Illustrator 29.2.1, SVG Export Plug-In . SVG Version: 2.1.0 Build 116)  -->
  <rect width="250" height="250" fill="#fff"/>
  <g>
    <path d="M212.706,225.158c0-6.579,4.896-11.572,11.194-11.572,6.212,0,11.108,4.993,11.108,11.572,0,6.665-4.896,11.583-11.108,11.583-6.298,0-11.194-4.918-11.194-11.583M223.901,239.038c7.485,0,13.891-5.856,13.891-13.88,0-7.97-6.406-13.869-13.891-13.869-7.56,0-13.955,5.899-13.955,13.869,0,8.024,6.395,13.88,13.955,13.88M220.967,226.247h2.761l4.217,6.935h2.685l-4.508-7.042c2.329-.291,4.12-1.553,4.12-4.4,0-3.16-1.866-4.551-5.629-4.551h-6.029v15.994h2.383v-6.935ZM220.967,224.187v-4.929h3.3c1.672,0,3.462.356,3.462,2.34,0,2.448-1.834,2.588-3.882,2.588h-2.879Z" fill="#b4015c"/>
    <path d="M236.093,66.859h-52.769l.032-53.977c0-2.966-2.416-5.382-5.381-5.382h-105.506c-2.977,0-5.381,2.416-5.381,5.382,0,0-.043,50.806-.022,53.977H13.907c-2.966,0-5.382,2.405-5.382,5.382v106.509c0,2.977,2.416,5.382,5.382,5.382h34.78c1.834-17.805,6.449-33.637,13.61-46.277-2.071-1.726-3.581-3.98-4.292-6.525-.884-3.095-.507-6.266,1.046-8.919l30.035-54.258c1.337-2.869,3.764-4.972,6.827-5.91,2.178-.669,4.53-.679,6.794-.108l2.696-5.144c.496-.96,1.672-1.283,2.621-.766.949.539,1.326,1.736.82,2.675l-2.567,4.939c2.027,1.693,3.548,3.98,4.281,6.6.863,3.084.582,6.309-.776,9.038l-30.035,54.225c-1.51,2.815-4.044,4.875-7.118,5.813-2.232.701-4.605.733-6.837.129-4.368,7.711-7.84,16.878-10.213,26.972.183-.399.345-.83.539-1.229,3.192-6.708,7.236-12.338,11.971-16.684,3.904-3.559,8.315-6.341,13.092-8.207,3.559-1.391,7.334-2.276,11.162-2.653,3.063-.313,5.295-.183,6.266-.129.216,0,.399.022.442.022q-.022,0-.043.022v.032c.043,0,.065-.011.065-.011l.032-.043.043.043-.022.011c-.011.108-.237.345-1.294,1.348-3.872,3.688-15.605,14.926-22.259,29.367-3.527,8.488-6.083,18.852-7.571,30.833-.474,3.829-.809,7.894-1.089,12.057v26.67c.011,1.273.604,2.534,1.596,3.397.863.755,1.909,1.122,2.901,1.014h15.217c-.884-50.731,8.466-88.671,31.329-128.348-1.607-1.316-2.858-3.138-3.548-5.284-1.057-3.268-.766-6.924.852-9.976l32.926-59.37c.172-.367.42-.658.636-1.003.086-.108.151-.226.226-.367.421-.625.863-1.219,1.359-1.769.119-.119.237-.216.345-.324.302-.313.55-.658.884-.938,1.348-1.132,2.858-1.952,4.476-2.448,1.92-.593,3.829-.636,5.651-.237.874-1.682,1.78-3.376,2.739-5.123.507-.938,1.682-1.273,2.642-.744.938.539,1.294,1.736.787,2.696-.873,1.607-1.704,3.203-2.556,4.767,2.362,1.682,4.012,4.12,4.734,6.978.841,3.246.41,6.73-1.219,9.825l-32.947,59.359c-1.553,3.095-4.282,5.392-7.528,6.287-2.394.669-4.821.539-7.042-.345-3.602,6.277-6.891,12.489-9.825,18.733,3.041-4.012,6.482-7.409,10.289-10.127,4.346-3.095,9.178-5.338,14.408-6.676,9.189-2.351,16.846-1.24,19.358-.874.388.054.701.119.744.086-.022,0-.043.032-.022.065.022,0,.054,0,.054-.022h.054c0,.022-.011.043-.011.065-.076.108-.324.313-1.391,1.186-4.163,3.343-16.802,13.513-24.233,27.458-4.303,7.981-7.819,17.913-10.396,29.453-2.125,9.534-3.678,20.275-4.573,31.976-1.046,13.556-1.079,26.067-.863,35.039h20.307c-1.1-31.588,1.381-54.387,14.904-84.142-1.952-1.715-3.43-3.99-4.152-6.557-.852-3.095-.572-6.266.809-8.908l30.003-55.271c1.639-2.631,4.206-4.53,7.269-5.328,2.243-.593,4.54-.518,6.633.173.82-1.607,1.618-3.235,2.416-4.918.474-.971,1.628-1.359,2.61-.852.96.496,1.37,1.682.917,2.631-.82,1.704-1.628,3.343-2.437,4.972,2.157,1.488,3.775,3.613,4.53,6.158.927,3.149.507,6.546-1.208,9.501l-30.035,54.247c-1.305,2.815-3.688,4.896-6.762,5.835-2.265.69-4.713.723-7.075.119-5.144,11.302-8.638,21.602-10.936,31.782.679-2.06,1.391-4.087,2.168-6.05,2.728-7.129,6.654-13.136,11.583-17.816,3.99-3.785,8.682-6.73,13.934-8.779,8.628-3.365,15.972-3.192,17.352-3.138h.011l-.022.054c.032,0,.054.022.032,0l.011-.054c.032.022.043.022.065.054v.022c0,.108-.183.345-1.24,1.564-1.855,2.146-5.295,6.136-8.994,11.529-4.551,6.654-7.991,13.276-10.235,19.671-5.123,15.929-5.737,35.374-4.519,53.503h16.005c1.003.129,2.06-.27,2.912-1.068.917-.906,1.424-2.125,1.327-3.343,0,.022.065-49.922.065-53.934h52.877c2.976,0,5.381-2.405,5.381-5.382v-106.509c0-2.977-2.405-5.382-5.381-5.382" fill="#b4015c"/>
  </g>
</svg>