<svg xmlns="http://www.w3.org/2000/svg" width="1024" height="1024" viewBox="0 0 1024 1024">
<path d="M 272,724 L 271,725 L 269,725 L 268,726 L 267,726 L 265,728 L 264,728 L 260,732 L 260,733 L 221,772 L 221,773 L 187,807 L 187,808 L 168,827 L 168,828 L 167,829 L 167,830 L 166,831 L 166,832 L 165,833 L 165,843 L 166,844 L 166,846 L 171,851 L 171,852 L 185,866 L 186,866 L 187,867 L 188,867 L 189,868 L 191,868 L 192,869 L 198,869 L 199,868 L 201,868 L 202,867 L 203,867 L 205,865 L 206,865 L 318,753 L 318,752 L 316,752 L 315,751 L 313,751 L 312,750 L 311,750 L 310,749 L 309,749 L 308,748 L 307,748 L 305,746 L 304,746 L 303,745 L 302,745 L 298,741 L 297,741 L 290,734 L 290,733 L 287,730 L 287,729 L 286,728 L 286,727 L 284,725 L 282,725 L 281,724 Z" fill="black" />
<path d="M 699,535 L 699,536 L 700,536 L 701,537 L 701,538 L 708,545 L 708,546 L 711,549 L 711,550 L 714,553 L 714,554 L 716,556 L 716,557 L 718,559 L 718,560 L 719,561 L 719,562 L 721,564 L 721,565 L 722,566 L 722,567 L 723,568 L 723,569 L 724,570 L 724,571 L 725,572 L 725,573 L 726,574 L 726,575 L 727,576 L 727,577 L 728,578 L 728,580 L 729,581 L 729,582 L 730,583 L 730,585 L 731,586 L 731,588 L 732,589 L 732,591 L 733,592 L 733,594 L 734,595 L 734,597 L 735,598 L 735,601 L 736,602 L 736,606 L 737,607 L 737,611 L 738,612 L 738,618 L 739,619 L 739,629 L 740,630 L 740,687 L 856,687 L 857,686 L 859,686 L 860,685 L 861,685 L 862,684 L 863,684 L 868,679 L 868,678 L 869,677 L 869,676 L 870,675 L 870,674 L 871,673 L 871,669 L 872,668 L 872,613 L 871,612 L 871,606 L 870,605 L 870,602 L 869,601 L 869,598 L 868,597 L 868,595 L 867,594 L 867,592 L 866,591 L 866,590 L 865,589 L 865,588 L 864,587 L 864,586 L 863,585 L 863,584 L 861,582 L 861,581 L 859,579 L 859,578 L 856,575 L 856,574 L 845,563 L 844,563 L 841,560 L 840,560 L 837,557 L 836,557 L 834,555 L 833,555 L 832,554 L 831,554 L 829,552 L 828,552 L 827,551 L 826,551 L 825,550 L 824,550 L 823,549 L 822,549 L 821,548 L 820,548 L 819,547 L 818,547 L 817,546 L 816,546 L 815,545 L 814,545 L 813,544 L 811,544 L 810,543 L 808,543 L 807,542 L 805,542 L 804,541 L 802,541 L 801,540 L 798,540 L 797,539 L 795,539 L 794,538 L 790,538 L 789,537 L 784,537 L 783,536 L 775,536 L 774,535 L 751,535 L 750,536 L 737,536 L 736,535 L 735,536 L 734,535 Z" fill="black" />
<path d="M 250,535 L 249,536 L 241,536 L 240,537 L 235,537 L 234,538 L 230,538 L 229,539 L 226,539 L 225,540 L 222,540 L 221,541 L 219,541 L 218,542 L 216,542 L 215,543 L 214,543 L 213,544 L 211,544 L 210,545 L 209,545 L 208,546 L 206,546 L 205,547 L 204,547 L 203,548 L 202,548 L 201,549 L 200,549 L 199,550 L 198,550 L 196,552 L 195,552 L 194,553 L 193,553 L 191,555 L 190,555 L 189,556 L 188,556 L 185,559 L 184,559 L 181,562 L 180,562 L 166,576 L 166,577 L 164,579 L 164,580 L 162,582 L 162,583 L 160,585 L 160,586 L 159,587 L 159,588 L 158,589 L 158,591 L 157,592 L 157,593 L 156,594 L 156,596 L 155,597 L 155,599 L 154,600 L 154,603 L 153,604 L 153,609 L 152,610 L 152,669 L 153,670 L 153,673 L 154,674 L 154,675 L 155,676 L 155,677 L 156,678 L 156,679 L 160,683 L 161,683 L 163,685 L 165,685 L 166,686 L 168,686 L 169,687 L 284,687 L 284,624 L 285,623 L 285,615 L 286,614 L 286,609 L 287,608 L 287,604 L 288,603 L 288,599 L 289,598 L 289,596 L 290,595 L 290,592 L 291,591 L 291,589 L 292,588 L 292,586 L 293,585 L 293,584 L 294,583 L 294,581 L 295,580 L 295,578 L 296,577 L 296,576 L 297,575 L 297,574 L 298,573 L 298,572 L 299,571 L 299,570 L 300,569 L 300,568 L 301,567 L 301,566 L 302,565 L 302,564 L 304,562 L 304,561 L 305,560 L 305,559 L 306,558 L 306,557 L 308,555 L 308,554 L 311,551 L 311,550 L 314,547 L 314,546 L 318,542 L 318,541 L 324,535 L 288,535 L 287,536 L 268,536 L 267,535 Z" fill="black" />
<path d="M 585,502 L 584,503 L 584,507 L 583,508 L 583,511 L 582,512 L 582,515 L 581,516 L 581,519 L 580,520 L 580,523 L 579,524 L 579,526 L 578,527 L 578,530 L 577,531 L 577,533 L 576,534 L 576,536 L 575,537 L 575,539 L 574,540 L 574,542 L 573,543 L 573,545 L 572,546 L 572,548 L 571,549 L 571,551 L 570,552 L 570,553 L 569,554 L 569,556 L 568,557 L 568,559 L 567,560 L 567,561 L 566,562 L 566,564 L 565,565 L 565,567 L 564,568 L 564,569 L 563,570 L 563,572 L 562,573 L 562,575 L 561,576 L 561,577 L 560,578 L 560,580 L 559,581 L 559,582 L 558,583 L 558,585 L 557,586 L 557,588 L 556,589 L 556,590 L 555,591 L 555,593 L 554,594 L 554,595 L 553,596 L 553,598 L 552,599 L 552,600 L 551,601 L 551,603 L 550,604 L 550,606 L 549,607 L 549,608 L 548,609 L 548,611 L 547,612 L 547,613 L 546,614 L 546,616 L 545,617 L 545,618 L 544,619 L 544,621 L 543,622 L 543,624 L 542,625 L 542,626 L 541,627 L 540,626 L 540,622 L 539,621 L 539,615 L 538,614 L 538,609 L 537,608 L 537,602 L 536,601 L 536,596 L 535,595 L 535,589 L 534,588 L 534,582 L 533,581 L 533,577 L 532,576 L 532,572 L 531,571 L 531,568 L 530,567 L 530,564 L 529,563 L 529,560 L 528,559 L 528,555 L 529,554 L 529,553 L 530,552 L 530,551 L 531,550 L 531,549 L 532,548 L 532,546 L 533,545 L 533,544 L 534,543 L 534,542 L 535,541 L 535,539 L 536,538 L 536,536 L 537,535 L 537,533 L 538,532 L 538,529 L 539,528 L 539,522 L 538,521 L 538,519 L 536,517 L 536,516 L 534,514 L 533,514 L 532,513 L 531,513 L 530,512 L 529,512 L 528,511 L 496,511 L 495,512 L 493,512 L 491,514 L 490,514 L 487,517 L 487,518 L 486,519 L 486,521 L 485,522 L 485,529 L 486,530 L 486,533 L 487,534 L 487,537 L 488,538 L 488,540 L 489,541 L 489,543 L 490,544 L 490,546 L 491,547 L 491,548 L 492,549 L 492,550 L 493,551 L 493,552 L 494,553 L 494,554 L 495,555 L 495,556 L 496,557 L 495,558 L 495,561 L 494,562 L 494,565 L 493,566 L 493,569 L 492,570 L 492,574 L 491,575 L 491,579 L 490,580 L 490,584 L 489,585 L 489,591 L 488,592 L 488,598 L 487,599 L 487,605 L 486,606 L 486,612 L 485,613 L 485,619 L 484,620 L 484,626 L 483,627 L 482,627 L 481,626 L 481,624 L 480,623 L 480,621 L 479,620 L 479,619 L 478,618 L 478,616 L 477,615 L 477,613 L 476,612 L 476,611 L 475,610 L 475,608 L 474,607 L 474,606 L 473,605 L 473,603 L 472,602 L 472,600 L 471,599 L 471,598 L 470,597 L 470,595 L 469,594 L 469,593 L 468,592 L 468,590 L 467,589 L 467,587 L 466,586 L 466,585 L 465,584 L 465,582 L 464,581 L 464,580 L 463,579 L 463,577 L 462,576 L 462,575 L 461,574 L 461,572 L 460,571 L 460,569 L 459,568 L 459,567 L 458,566 L 458,564 L 457,563 L 457,561 L 456,560 L 456,559 L 455,558 L 455,556 L 454,555 L 454,554 L 453,553 L 453,551 L 452,550 L 452,548 L 451,547 L 451,545 L 450,544 L 450,542 L 449,541 L 449,539 L 448,538 L 448,536 L 447,535 L 447,533 L 446,532 L 446,529 L 445,528 L 445,526 L 444,525 L 444,522 L 443,521 L 443,518 L 442,517 L 442,514 L 441,513 L 441,510 L 440,509 L 440,505 L 439,504 L 439,503 L 437,503 L 436,504 L 435,504 L 434,505 L 433,505 L 432,506 L 430,506 L 429,507 L 427,507 L 426,508 L 425,508 L 424,509 L 422,509 L 421,510 L 419,510 L 418,511 L 417,511 L 416,512 L 414,512 L 413,513 L 411,513 L 410,514 L 409,514 L 408,515 L 406,515 L 405,516 L 403,516 L 402,517 L 401,517 L 400,518 L 398,518 L 397,519 L 396,519 L 395,520 L 393,520 L 392,521 L 391,521 L 390,522 L 388,522 L 387,523 L 385,523 L 384,524 L 383,524 L 382,525 L 380,525 L 379,526 L 378,526 L 377,527 L 376,527 L 375,528 L 373,528 L 372,529 L 371,529 L 370,530 L 369,530 L 368,531 L 367,531 L 365,533 L 364,533 L 363,534 L 362,534 L 361,535 L 360,535 L 358,537 L 357,537 L 355,539 L 354,539 L 352,541 L 351,541 L 347,545 L 346,545 L 333,558 L 333,559 L 329,563 L 329,564 L 327,566 L 327,567 L 325,569 L 325,570 L 323,572 L 323,573 L 322,574 L 322,575 L 321,576 L 321,577 L 320,578 L 320,579 L 319,580 L 319,581 L 318,582 L 318,583 L 317,584 L 317,585 L 316,586 L 316,587 L 315,588 L 315,590 L 314,591 L 314,593 L 313,594 L 313,596 L 312,597 L 312,599 L 311,600 L 311,603 L 310,604 L 310,607 L 309,608 L 309,612 L 308,613 L 308,619 L 307,620 L 307,712 L 308,713 L 308,715 L 309,716 L 309,718 L 310,719 L 310,720 L 311,721 L 311,722 L 318,729 L 319,729 L 320,730 L 321,730 L 322,731 L 323,731 L 324,732 L 327,732 L 328,733 L 695,733 L 696,732 L 699,732 L 700,731 L 701,731 L 702,730 L 703,730 L 704,729 L 705,729 L 707,727 L 708,727 L 711,724 L 711,723 L 713,721 L 713,720 L 714,719 L 714,718 L 715,717 L 715,715 L 716,714 L 716,711 L 717,710 L 717,624 L 716,623 L 716,616 L 715,615 L 715,610 L 714,609 L 714,605 L 713,604 L 713,602 L 712,601 L 712,598 L 711,597 L 711,595 L 710,594 L 710,592 L 709,591 L 709,590 L 708,589 L 708,587 L 707,586 L 707,585 L 706,584 L 706,583 L 705,582 L 705,581 L 704,580 L 704,579 L 703,578 L 703,577 L 702,576 L 702,575 L 700,573 L 700,572 L 699,571 L 699,570 L 697,568 L 697,567 L 694,564 L 694,563 L 690,559 L 690,558 L 679,547 L 678,547 L 674,543 L 673,543 L 670,540 L 669,540 L 667,538 L 666,538 L 664,536 L 663,536 L 661,534 L 660,534 L 659,533 L 658,533 L 657,532 L 656,532 L 655,531 L 654,531 L 653,530 L 652,530 L 651,529 L 650,529 L 649,528 L 648,528 L 647,527 L 646,527 L 645,526 L 644,526 L 643,525 L 641,525 L 640,524 L 639,524 L 638,523 L 636,523 L 635,522 L 634,522 L 633,521 L 631,521 L 630,520 L 629,520 L 628,519 L 626,519 L 625,518 L 623,518 L 622,517 L 621,517 L 620,516 L 618,516 L 617,515 L 616,515 L 615,514 L 613,514 L 612,513 L 610,513 L 609,512 L 608,512 L 607,511 L 605,511 L 604,510 L 603,510 L 602,509 L 600,509 L 599,508 L 597,508 L 596,507 L 595,507 L 594,506 L 592,506 L 591,505 L 590,505 L 589,504 L 588,504 L 587,503 L 586,503 Z" fill="black" />
<path d="M 723,361 L 722,362 L 717,362 L 716,363 L 713,363 L 712,364 L 710,364 L 709,365 L 707,365 L 706,366 L 705,366 L 704,367 L 702,367 L 701,368 L 700,368 L 698,370 L 697,370 L 696,371 L 695,371 L 693,373 L 692,373 L 689,376 L 688,376 L 678,386 L 678,387 L 675,390 L 675,391 L 673,393 L 673,394 L 671,396 L 671,397 L 670,398 L 670,399 L 669,400 L 669,401 L 668,402 L 668,403 L 667,404 L 667,405 L 666,406 L 666,408 L 665,409 L 665,411 L 664,412 L 664,414 L 663,415 L 663,418 L 662,419 L 662,423 L 661,424 L 661,431 L 660,432 L 660,442 L 661,443 L 661,451 L 662,452 L 662,456 L 663,457 L 663,459 L 664,460 L 664,463 L 665,464 L 665,466 L 666,467 L 666,468 L 667,469 L 667,470 L 668,471 L 668,473 L 669,474 L 669,475 L 671,477 L 671,478 L 672,479 L 672,480 L 674,482 L 674,483 L 676,485 L 676,486 L 682,492 L 682,493 L 684,495 L 685,495 L 689,499 L 690,499 L 693,502 L 694,502 L 696,504 L 697,504 L 698,505 L 699,505 L 700,506 L 701,506 L 702,507 L 703,507 L 704,508 L 706,508 L 707,509 L 708,509 L 709,510 L 712,510 L 713,511 L 716,511 L 717,512 L 722,512 L 723,513 L 736,513 L 737,512 L 742,512 L 743,511 L 746,511 L 747,510 L 750,510 L 751,509 L 753,509 L 754,508 L 755,508 L 756,507 L 757,507 L 758,506 L 759,506 L 760,505 L 761,505 L 762,504 L 763,504 L 764,503 L 765,503 L 767,501 L 768,501 L 771,498 L 772,498 L 783,487 L 783,486 L 786,483 L 786,482 L 788,480 L 788,479 L 790,477 L 790,476 L 791,475 L 791,474 L 792,473 L 792,472 L 793,471 L 793,469 L 794,468 L 794,467 L 795,466 L 795,464 L 796,463 L 796,461 L 797,460 L 797,458 L 798,457 L 798,453 L 799,452 L 799,447 L 800,446 L 800,427 L 799,426 L 799,421 L 798,420 L 798,416 L 797,415 L 797,412 L 796,411 L 796,409 L 795,408 L 795,407 L 794,406 L 794,404 L 793,403 L 793,402 L 792,401 L 792,400 L 791,399 L 791,398 L 790,397 L 790,396 L 788,394 L 788,393 L 787,392 L 787,391 L 784,388 L 784,387 L 771,374 L 770,374 L 768,372 L 767,372 L 765,370 L 764,370 L 763,369 L 762,369 L 761,368 L 760,368 L 759,367 L 758,367 L 757,366 L 756,366 L 755,365 L 753,365 L 752,364 L 750,364 L 749,363 L 746,363 L 745,362 L 740,362 L 739,361 Z" fill="black" />
<path d="M 285,360 L 284,361 L 280,361 L 279,362 L 276,362 L 275,363 L 273,363 L 272,364 L 270,364 L 269,365 L 267,365 L 266,366 L 265,366 L 264,367 L 263,367 L 262,368 L 261,368 L 259,370 L 258,370 L 257,371 L 256,371 L 254,373 L 253,373 L 248,378 L 247,378 L 242,383 L 242,384 L 238,388 L 238,389 L 235,392 L 235,393 L 234,394 L 234,395 L 232,397 L 232,398 L 231,399 L 231,400 L 230,401 L 230,402 L 229,403 L 229,405 L 228,406 L 228,407 L 227,408 L 227,410 L 226,411 L 226,413 L 225,414 L 225,417 L 224,418 L 224,423 L 223,424 L 223,447 L 224,448 L 224,453 L 225,454 L 225,457 L 226,458 L 226,460 L 227,461 L 227,463 L 228,464 L 228,466 L 229,467 L 229,468 L 230,469 L 230,470 L 231,471 L 231,472 L 232,473 L 232,474 L 233,475 L 233,476 L 235,478 L 235,479 L 237,481 L 237,482 L 240,485 L 240,486 L 249,495 L 250,495 L 253,498 L 254,498 L 257,501 L 258,501 L 259,502 L 260,502 L 261,503 L 262,503 L 263,504 L 264,504 L 265,505 L 266,505 L 267,506 L 268,506 L 269,507 L 271,507 L 272,508 L 274,508 L 275,509 L 277,509 L 278,510 L 281,510 L 282,511 L 287,511 L 288,512 L 302,512 L 303,511 L 308,511 L 309,510 L 313,510 L 314,509 L 316,509 L 317,508 L 319,508 L 320,507 L 321,507 L 322,506 L 323,506 L 324,505 L 325,505 L 326,504 L 327,504 L 328,503 L 329,503 L 330,502 L 331,502 L 333,500 L 334,500 L 337,497 L 338,497 L 348,487 L 348,486 L 351,483 L 351,482 L 353,480 L 353,479 L 355,477 L 355,476 L 356,475 L 356,474 L 357,473 L 357,472 L 358,471 L 358,470 L 359,469 L 359,467 L 360,466 L 360,465 L 361,464 L 361,462 L 362,461 L 362,459 L 363,458 L 363,455 L 364,454 L 364,449 L 365,448 L 365,424 L 364,423 L 364,418 L 363,417 L 363,414 L 362,413 L 362,411 L 361,410 L 361,408 L 360,407 L 360,405 L 359,404 L 359,403 L 358,402 L 358,401 L 357,400 L 357,399 L 356,398 L 356,397 L 355,396 L 355,395 L 353,393 L 353,392 L 351,390 L 351,389 L 348,386 L 348,385 L 338,375 L 337,375 L 334,372 L 333,372 L 331,370 L 330,370 L 329,369 L 328,369 L 326,367 L 324,367 L 323,366 L 322,366 L 321,365 L 320,365 L 319,364 L 317,364 L 316,363 L 314,363 L 313,362 L 310,362 L 309,361 L 305,361 L 304,360 Z" fill="black" />
<path d="M 501,235 L 500,236 L 493,236 L 492,237 L 488,237 L 487,238 L 484,238 L 483,239 L 481,239 L 480,240 L 478,240 L 477,241 L 475,241 L 474,242 L 473,242 L 472,243 L 470,243 L 469,244 L 468,244 L 467,245 L 466,245 L 465,246 L 464,246 L 463,247 L 462,247 L 460,249 L 459,249 L 458,250 L 457,250 L 455,252 L 454,252 L 451,255 L 450,255 L 447,258 L 446,258 L 434,270 L 434,271 L 430,275 L 430,276 L 428,278 L 428,279 L 426,281 L 426,282 L 424,284 L 424,285 L 423,286 L 423,287 L 422,288 L 422,289 L 421,290 L 421,291 L 420,292 L 420,293 L 419,294 L 419,295 L 418,296 L 418,297 L 417,298 L 417,300 L 416,301 L 416,302 L 415,303 L 415,305 L 414,306 L 414,309 L 413,310 L 413,313 L 412,314 L 412,317 L 411,318 L 411,324 L 410,325 L 410,369 L 411,370 L 411,376 L 412,377 L 412,382 L 413,383 L 413,386 L 414,387 L 414,390 L 415,391 L 415,393 L 416,394 L 416,396 L 417,397 L 417,399 L 418,400 L 418,402 L 419,403 L 419,404 L 420,405 L 420,407 L 421,408 L 421,409 L 422,410 L 422,411 L 423,412 L 423,413 L 424,414 L 424,415 L 425,416 L 425,417 L 426,418 L 426,419 L 428,421 L 428,422 L 429,423 L 429,424 L 431,426 L 431,427 L 433,429 L 433,430 L 436,433 L 436,434 L 439,437 L 439,438 L 455,454 L 456,454 L 460,458 L 461,458 L 463,460 L 464,460 L 466,462 L 467,462 L 469,464 L 470,464 L 471,465 L 472,465 L 473,466 L 474,466 L 475,467 L 476,467 L 477,468 L 478,468 L 479,469 L 481,469 L 482,470 L 483,470 L 484,471 L 486,471 L 487,472 L 490,472 L 491,473 L 494,473 L 495,474 L 499,474 L 500,475 L 523,475 L 524,474 L 529,474 L 530,473 L 533,473 L 534,472 L 536,472 L 537,471 L 539,471 L 540,470 L 542,470 L 543,469 L 544,469 L 545,468 L 546,468 L 547,467 L 549,467 L 551,465 L 552,465 L 553,464 L 554,464 L 555,463 L 556,463 L 558,461 L 559,461 L 560,460 L 561,460 L 564,457 L 565,457 L 569,453 L 570,453 L 583,440 L 583,439 L 587,435 L 587,434 L 590,431 L 590,430 L 592,428 L 592,427 L 594,425 L 594,424 L 595,423 L 595,422 L 596,421 L 596,420 L 598,418 L 598,417 L 599,416 L 599,415 L 600,414 L 600,413 L 601,412 L 601,411 L 602,410 L 602,408 L 603,407 L 603,406 L 604,405 L 604,403 L 605,402 L 605,401 L 606,400 L 606,398 L 607,397 L 607,395 L 608,394 L 608,391 L 609,390 L 609,387 L 610,386 L 610,382 L 611,381 L 611,377 L 612,376 L 612,368 L 613,367 L 613,327 L 612,326 L 612,320 L 611,319 L 611,315 L 610,314 L 610,311 L 609,310 L 609,308 L 608,307 L 608,305 L 607,304 L 607,302 L 606,301 L 606,299 L 605,298 L 605,297 L 604,296 L 604,295 L 603,294 L 603,293 L 602,292 L 602,291 L 601,290 L 601,289 L 600,288 L 600,287 L 599,286 L 599,285 L 597,283 L 597,282 L 595,280 L 595,279 L 593,277 L 593,276 L 589,272 L 589,271 L 577,259 L 576,259 L 572,255 L 571,255 L 569,253 L 568,253 L 566,251 L 565,251 L 563,249 L 562,249 L 561,248 L 560,248 L 559,247 L 558,247 L 557,246 L 556,246 L 555,245 L 554,245 L 553,244 L 552,244 L 551,243 L 550,243 L 549,242 L 547,242 L 546,241 L 544,241 L 543,240 L 542,240 L 541,239 L 538,239 L 537,238 L 534,238 L 533,237 L 529,237 L 528,236 L 522,236 L 521,235 Z" fill="black" />
<path d="M 857,162 L 856,163 L 849,163 L 848,164 L 840,164 L 839,165 L 831,165 L 830,166 L 822,166 L 821,167 L 812,167 L 811,168 L 804,168 L 803,169 L 795,169 L 794,170 L 786,170 L 785,171 L 776,171 L 775,172 L 767,172 L 766,173 L 759,173 L 758,174 L 750,174 L 749,175 L 743,175 L 742,176 L 740,176 L 739,177 L 738,177 L 737,178 L 736,178 L 732,182 L 732,184 L 731,185 L 731,190 L 732,191 L 732,192 L 734,194 L 734,195 L 750,211 L 750,212 L 766,228 L 766,229 L 763,232 L 763,233 L 756,240 L 756,241 L 749,248 L 749,249 L 740,258 L 740,259 L 728,271 L 728,272 L 686,314 L 685,314 L 669,330 L 668,330 L 656,342 L 655,342 L 644,353 L 643,353 L 641,355 L 641,371 L 640,372 L 640,381 L 639,382 L 639,388 L 638,389 L 638,394 L 637,395 L 637,399 L 636,400 L 636,404 L 635,405 L 635,408 L 634,409 L 634,411 L 633,412 L 635,410 L 635,409 L 636,408 L 636,407 L 638,405 L 638,404 L 640,402 L 640,401 L 641,400 L 641,399 L 642,398 L 642,397 L 643,396 L 643,395 L 645,393 L 645,392 L 647,390 L 647,389 L 649,387 L 649,386 L 652,383 L 652,382 L 656,378 L 656,377 L 664,369 L 665,369 L 670,364 L 671,364 L 674,361 L 675,361 L 677,359 L 678,359 L 680,357 L 681,357 L 683,355 L 684,355 L 685,354 L 686,354 L 687,353 L 688,353 L 689,352 L 690,352 L 691,351 L 692,351 L 693,350 L 694,350 L 695,349 L 696,349 L 697,348 L 699,348 L 700,347 L 701,347 L 702,346 L 704,346 L 705,345 L 707,345 L 708,344 L 711,344 L 712,343 L 715,343 L 716,342 L 719,342 L 720,341 L 725,341 L 726,340 L 735,340 L 736,339 L 738,339 L 739,340 L 772,307 L 773,307 L 808,272 L 822,286 L 822,287 L 846,311 L 847,311 L 848,312 L 849,312 L 850,313 L 854,313 L 855,312 L 857,312 L 862,307 L 862,306 L 863,305 L 863,303 L 864,302 L 864,299 L 865,298 L 865,291 L 866,290 L 866,282 L 867,281 L 867,273 L 868,272 L 868,265 L 869,264 L 869,256 L 870,255 L 870,248 L 871,247 L 871,239 L 872,238 L 872,230 L 873,229 L 873,221 L 874,220 L 874,212 L 875,211 L 875,203 L 876,202 L 876,195 L 877,194 L 877,186 L 878,185 L 878,178 L 879,177 L 879,171 L 878,170 L 878,168 L 873,163 L 872,163 L 871,162 Z" fill="black" />
</svg>