<?xml version="1.0" encoding="UTF-8" standalone="no"?>
<!-- Generated by Microsoft Visio, SVG Export Function App Function.svg Page-1 -->

<svg
   width="56.689999"
   height="45.358387"
   viewBox="0 0 56.689998 45.358387"
   xml:space="preserve"
   class="st5"
   version="1.1"
   id="svg44"
   sodipodi:docname="Function App Function SB Topic.svg"
   style="font-size:12px;overflow:visible;color-interpolation-filters:sRGB;fill:none;fill-rule:evenodd;stroke-linecap:square;stroke-miterlimit:3"
   inkscape:version="1.3 (0e150ed6c4, 2023-07-21)"
   xmlns:inkscape="http://www.inkscape.org/namespaces/inkscape"
   xmlns:sodipodi="http://sodipodi.sourceforge.net/DTD/sodipodi-0.dtd"
   xmlns:xlink="http://www.w3.org/1999/xlink"
   xmlns="http://www.w3.org/2000/svg"
   xmlns:svg="http://www.w3.org/2000/svg"
   xmlns:rdf="http://www.w3.org/1999/02/22-rdf-syntax-ns#"
   xmlns:cc="http://creativecommons.org/ns#"
   xmlns:dc="http://purl.org/dc/elements/1.1/"><metadata
   id="metadata48"><rdf:RDF><cc:Work
       rdf:about=""><dc:format>image/svg+xml</dc:format><dc:type
         rdf:resource="http://purl.org/dc/dcmitype/StillImage" /></cc:Work></rdf:RDF></metadata><sodipodi:namedview
   pagecolor="#ffffff"
   bordercolor="#666666"
   borderopacity="1"
   objecttolerance="10"
   gridtolerance="10"
   guidetolerance="10"
   inkscape:pageopacity="0"
   inkscape:pageshadow="2"
   inkscape:window-width="2560"
   inkscape:window-height="1377"
   id="namedview46"
   showgrid="false"
   inkscape:zoom="8.326424"
   inkscape:cx="29.304297"
   inkscape:cy="27.803052"
   inkscape:window-x="1072"
   inkscape:window-y="272"
   inkscape:window-maximized="1"
   inkscape:current-layer="group13001-2"
   inkscape:showpageshadow="0"
   inkscape:pagecheckerboard="0"
   inkscape:deskcolor="#505050" />&#10;	<style
   type="text/css"
   id="style2">&#10;	<![CDATA[
		.st1 {fill:#0078d4;stroke:none;stroke-linecap:butt;stroke-width:34}
		.st2 {fill:#5ea0ef;stroke:none;stroke-linecap:butt;stroke-width:34}
		.st3 {fill:url(#grad0-10);stroke:none;stroke-linecap:butt;stroke-width:34}
		.st4 {fill:#949494;stroke:none;stroke-linecap:butt;stroke-width:34}
		.st5 {fill:none;fill-rule:evenodd;font-size:12px;overflow:visible;stroke-linecap:square;stroke-miterlimit:3}
	]]>&#10;	</style>&#10;&#10;	<defs
   id="Patterns_And_Gradients">&#10;		<linearGradient
   id="grad0-10"
   x1="-0.00050639078"
   y1="68.422577"
   x2="30.393227"
   y2="68.422577"
   gradientTransform="scale(0.87158095,1.1473404)"
   gradientUnits="userSpaceOnUse">&#10;			<stop
   offset="0"
   stop-color="#0078d4"
   stop-opacity="1"
   id="stop4" />&#10;			<stop
   offset="0.38"
   stop-color="#2989e0"
   stop-opacity="1"
   id="stop6" />&#10;			<stop
   offset="0.785"
   stop-color="#4f9aeb"
   stop-opacity="1"
   id="stop8" />&#10;			<stop
   offset="1"
   stop-color="#5ea0ef"
   stop-opacity="1"
   id="stop10" />&#10;		</linearGradient>&#10;	<linearGradient
   inkscape:collect="always"
   xlink:href="#grad0-12"
   id="linearGradient4667"
   gradientTransform="scale(1.7295604,0.57818159)"
   x1="0"
   y1="191.84283"
   x2="14.044031"
   y2="191.84283"
   gradientUnits="userSpaceOnUse" /><linearGradient
   id="grad0-12"
   x1="0"
   y1="0"
   x2="1"
   y2="0"
   gradientTransform="rotate(90,0.5,0.5)">&#10;			<stop
   offset="0"
   stop-color="#005ba1"
   stop-opacity="1"
   id="stop4-0" />&#10;			<stop
   offset="0.26"
   stop-color="#00589d"
   stop-opacity="1"
   id="stop6-1" />&#10;			<stop
   offset="0.53"
   stop-color="#004f90"
   stop-opacity="1"
   id="stop8-5" />&#10;			<stop
   offset="0.8"
   stop-color="#003f7c"
   stop-opacity="1"
   id="stop10-4" />&#10;			<stop
   offset="1"
   stop-color="#003067"
   stop-opacity="1"
   id="stop12" />&#10;		</linearGradient><linearGradient
   inkscape:collect="always"
   xlink:href="#grad0-12"
   id="linearGradient4669"
   gradientTransform="scale(1.7307411,0.57778716)"
   x1="0"
   y1="198.39487"
   x2="7.6325684"
   y2="198.39487"
   gradientUnits="userSpaceOnUse" /><linearGradient
   inkscape:collect="always"
   xlink:href="#grad0-12"
   id="linearGradient1"
   gradientUnits="userSpaceOnUse"
   gradientTransform="scale(1.7307411,0.57778716)"
   x1="0"
   y1="198.39487"
   x2="7.6325684"
   y2="198.39487" /></defs>&#10;	<g
   id="g42"
   transform="translate(-34,-34.000107)">&#10;		<title
   id="title14">Page-1</title>&#10;		<g
   id="group14988-1"
   transform="translate(34,-34.0157)">&#10;			<title
   id="title16">Function App Function.14988</title>&#10;			<g
   id="group14989-2">&#10;				<title
   id="title18">Sheet.14989</title>&#10;				&#10;				&#10;				<g
   id="shape14992-7"
   transform="translate(8.71884,-8.21265)">&#10;					<title
   id="title30">Sheet.14992</title>&#10;					<path
   d="m 25.6,79.11 a 3.41952,3.372 -180 0 0 -2.16,-0.6 8.92351,8.79949 -180 0 0 -4.45,1.32 10.649,10.501 -180 0 0 -3.75,3.6 21.4429,21.1449 -180 0 0 -2.28,5.91 H 8.83 l -0.17,0.69 -0.32,1.22 -0.29,1.13 h 4.14 l -3.23,12.79 a 8.77552,8.65356 0 0 1 -1.32,3.47 2.51899,2.48398 0 0 1 -1.82,0.52 17.4944,17.2512 0 0 1 -2.21,-0.15 10.6459,10.4979 -180 0 0 -1.19,-0.09 2.6103,2.57402 -180 0 0 -1.69,0.54 1.96796,1.94061 -180 0 0 -0.73,1.55 2.17892,2.14864 -180 0 0 0.94,1.76 3.57066,3.52104 -180 0 0 2.21,0.6 9.60678,9.47327 -180 0 0 6.66,-2.79 16.1813,15.9565 -180 0 0 4.31,-7.97 l 2.52,-10.23 h 4.66 l 0.16,-0.72 0.28,-1.21 0.26,-1.11 h -4.58 l 0.6,-2.51 a 11.0961,10.9419 0 0 1 1.35,-3.46 c 0.43,-0.64 0.86,-0.97 1.29,-0.97 a 5.66772,5.58895 0 0 1 1.11,0.15 13.7285,13.5377 -180 0 0 2.48,0.38 2.25134,2.22006 -180 0 0 1.59,-0.6 2.06872,2.03997 -180 0 0 0.65,-1.51 2.12854,2.09896 -180 0 0 -0.89,-1.71 z M 1.49,112.02 a 1.45471,1.4345 0 0 1 -0.42,-0.47 1.45471,1.4345 -180 0 0 0.42,0.47 2.04668,2.01823 -180 0 0 0.8,0.34 2.04668,2.01823 0 0 1 -0.81,-0.33 z"
   class="st3"
   id="path32"
   inkscape:connector-curvature="0"
   style="fill:url(#grad0-10);stroke:none;stroke-width:34;stroke-linecap:butt" />&#10;				</g>&#10;				<g
   id="shape14993-11">&#10;					<title
   id="title35">Sheet.14993</title>&#10;					<path
   d="M 6.49,85.17 V 73.75 c 0,-1.49 0.55,-2.38 1.6,-2.71 A 1.55547,1.53386 -180 0 0 9.15,69.57 1.57437,1.55249 -180 0 0 7.46,68.02 6.00463,5.92118 -180 0 0 3.94,69.21 6.15577,6.07022 -180 0 0 2.43,73.87 v 11.65 c 0,1.62 -0.5,2.6 -1.5,2.94 A 1.28468,1.26683 -180 0 0 0,89.64 v 2.1 a 1.28783,1.26993 -180 0 0 0.94,1.17 c 1.01,0.35 1.51,1.33 1.51,2.94 v 11.65 a 6.15577,6.07022 -180 0 0 1.5,4.69 6.00463,5.92118 -180 0 0 3.53,1.18 1.57437,1.55249 -180 0 0 1.69,-1.55 1.55547,1.53386 -180 0 0 -1.07,-1.47 C 7.05,110.02 6.5,109.14 6.5,107.64 V 96.2 c 0,-2.63 -0.69,-4.38 -2.43,-5.07 0,0 -0.71,-0.15 -0.71,-0.44 0,-0.35 0.88,-0.6 0.88,-0.6 1.74,-0.68 2.25,-2.29 2.25,-4.92 z m 43.7,0 V 73.75 c 0,-1.49 -0.55,-2.38 -1.6,-2.71 a 1.55547,1.53386 0 0 1 -1.06,-1.47 1.57437,1.55249 0 0 1 1.69,-1.55 6.00463,5.92118 0 0 1 3.52,1.19 6.15577,6.07022 0 0 1 1.51,4.68 v 11.63 c 0,1.62 0.5,2.6 1.5,2.94 a 1.28468,1.26683 0 0 1 0.94,1.18 v 2.1 a 1.28783,1.26993 0 0 1 -0.94,1.17 c -1,0.35 -1.5,1.33 -1.5,2.94 v 11.65 a 6.15577,6.07022 0 0 1 -1.51,4.69 6.00463,5.92118 0 0 1 -3.52,1.18 1.57437,1.55249 0 0 1 -1.69,-1.55 1.55547,1.53386 0 0 1 1.06,-1.47 c 1.05,-0.33 1.6,-1.21 1.6,-2.71 V 96.2 c 0,-2.63 0.7,-4.38 2.43,-5.07 0,0 0.71,-0.15 0.72,-0.44 0,-0.35 -0.89,-0.6 -0.89,-0.6 -1.74,-0.68 -2.26,-2.29 -2.26,-4.92 z"
   class="st4"
   id="path37"
   inkscape:connector-curvature="0"
   style="fill:#949494;stroke:none;stroke-width:34;stroke-linecap:butt" />&#10;				</g>&#10;			</g>&#10;		</g>&#10;	</g>&#10;<g
   id="g62"
   transform="matrix(0.41110208,0,0,0.41110208,19.850615,14.742478)"
   style="font-size:12px;overflow:visible;color-interpolation-filters:sRGB;fill:none;fill-rule:evenodd;stroke-linecap:square;stroke-miterlimit:3">&#10;		<title
   id="title4">Page-1</title>&#10;		<g
   id="group13000-1"
   transform="translate(12.24,-34.0157)">&#10;			<title
   id="title6">Scheduler Job Collection.13000</title>&#10;			<g
   id="group13001-2">&#10;				<title
   id="title8">Sheet.13001</title>&#10;				&#10;				&#10;				&#10;				&#10;				&#10;				&#10;				&#10;				&#10;				&#10;				<g
   id="g151"
   transform="matrix(0.59772351,0,0,0.59772351,-8.6590109,33.26704)"
   style="font-size:12px;overflow:visible;color-interpolation-filters:sRGB;fill:none;fill-rule:evenodd;stroke-linecap:square;stroke-miterlimit:3">&#10;		<title
   id="title16-6">Page-1</title>&#10;		<g
   id="group20538-1"
   transform="translate(34.0052,-34.0157)">&#10;			<title
   id="title18-5">Service Bus Topic.20538</title>&#10;			<g
   id="group20539-2">&#10;				<title
   id="title20">Icon-integration-214</title>&#10;				<g
   id="shape20540-3"
   transform="translate(0.0347618,-17.2009)">&#10;					<title
   id="title22">path4</title>&#10;					<path
   d="m 24.32,102.8 h -0.03 v -0.05 h -0.05 l -12.5,0.01 -11.68,-0.01 H 0 v 16.29 H 24.29 V 102.8 Z"
   class="st1"
   id="path24"
   inkscape:connector-curvature="0"
   style="fill:#50e6ff;stroke:none;stroke-width:28.2406;stroke-linecap:butt" />&#10;				</g>&#10;				<g
   id="shape20541-5"
   transform="translate(0.0347618,-17.2009)">&#10;					<title
   id="title27">path6</title>&#10;					<path
   d="m 0,102.8 v 16.24 l 12.16,-8.12 z"
   class="st2"
   id="path29"
   inkscape:connector-curvature="0"
   style="fill:#32bedd;stroke:none;stroke-width:28.2406;stroke-linecap:butt" />&#10;				</g>&#10;				<g
   id="shape20542-7"
   transform="translate(12.1949,-17.2009)">&#10;					<title
   id="title32">path8</title>&#10;					<path
   d="M 12.13,102.8 0,110.92 l 12.13,8.12 z"
   class="st3"
   id="path34"
   inkscape:connector-curvature="0"
   style="fill:#198ab3;stroke:none;stroke-width:28.2406;stroke-linecap:butt" />&#10;				</g>&#10;				<g
   id="shape20543-9"
   transform="translate(0.0347618,-17.2013)">&#10;					<title
   id="title37">path10</title>&#10;					<path
   d="M 12.13,110.92 0,119.01 v 0.03 h 24.29 v -0.03 z"
   class="st4"
   id="path39"
   inkscape:connector-curvature="0"
   style="fill:url(#linearGradient4667);stroke:none;stroke-width:28.2406;stroke-linecap:butt" />&#10;				</g>&#10;				<g
   id="group20544-13"
   transform="translate(0,-38.015)">&#10;					<title
   id="title42">g16</title>&#10;					<g
   id="shape20545-14">&#10;						<title
   id="title44">path12</title>&#10;						<path
   d="m 1.9,106.03 h 4.3 v 12.03 a 0.967114,0.977335 0 0 1 -0.967114,0.97733 L 0.97,119.04 A 0.967114,0.977335 0 0 1 0.002886,118.06267 L 0,107.95 a 1.90088,1.92097 0 0 1 1.9,-1.92 z"
   class="st5"
   id="path46"
   inkscape:connector-curvature="0"
   style="fill:#999999;stroke:none;stroke-width:34;stroke-linecap:butt" />&#10;					</g>&#10;					<g
   id="shape20546-16">&#10;						<title
   id="title49">path14</title>&#10;						<path
   d="m 1.9,106.03 h 4.3 v 12.03 a 0.967114,0.977335 0 0 1 -0.967114,0.97733 L 0.97,119.04 A 0.967114,0.977335 0 0 1 0.002886,118.06267 L 0,107.95 a 1.90088,1.92097 0 0 1 1.9,-1.92 z"
   class="st6"
   id="path51"
   inkscape:connector-curvature="0"
   style="fill:#999999;fill-opacity:0.5;stroke:none;stroke-width:34;stroke-linecap:butt" />&#10;					</g>&#10;				</g>&#10;				<g
   id="group20547-18"
   transform="translate(50.49,-38.015)">&#10;					<title
   id="title55-7">g22</title>&#10;					<g
   id="shape20548-19">&#10;						<title
   id="title57">path18</title>&#10;						<path
   d="m 0,106.03 h 4.3 a 1.90088,1.92097 0 0 1 1.9,1.92 v 10.11 a 0.967114,0.977335 0 0 1 -0.967114,0.97733 L 0.93,119.04 a 0.967114,0.977335 0 0 1 -0.933766,-0.97733 z"
   class="st5"
   id="path59"
   inkscape:connector-curvature="0"
   style="fill:#999999;stroke:none;stroke-width:34;stroke-linecap:butt" />&#10;					</g>&#10;					<g
   id="shape20549-21">&#10;						<title
   id="title62">path20</title>&#10;						<path
   d="m 0,106.03 h 4.3 a 1.90088,1.92097 0 0 1 1.9,1.92 v 10.11 a 0.967114,0.977335 0 0 1 -0.967114,0.97733 L 0.93,119.04 a 0.967114,0.977335 0 0 1 -0.933766,-0.97733 z"
   class="st6"
   id="path64"
   inkscape:connector-curvature="0"
   style="fill:#999999;fill-opacity:0.5;stroke:none;stroke-width:34;stroke-linecap:butt" />&#10;					</g>&#10;				</g>&#10;				<g
   id="shape20550-23"
   transform="translate(0,-44.89)">&#10;					<title
   id="title68">path24</title>&#10;					<path
   d="m 56.69,114.83 v 4.21 H 0 v -4.21 a 1.90088,1.92097 0 0 1 1.9,-1.92 h 52.93 a 1.90088,1.92097 0 0 1 1.86,1.92 z"
   class="st7"
   id="path70"
   inkscape:connector-curvature="0"
   style="fill:#949494;stroke:none;stroke-width:34;stroke-linecap:butt" />&#10;				</g>&#10;				<g
   id="group20551-25">&#10;					<title
   id="title73">g30</title>&#10;					<g
   id="shape20552-26">&#10;						<title
   id="title75">path26</title>&#10;						<path
   d="m 0.97,105.93 h 4.3 a 0.967114,0.977335 0 0 1 0.967114,0.97734 L 6.24,119.04 H 1.9 A 1.90088,1.92097 0 0 1 0,117.12 v -10.11 a 0.967114,0.977335 0 0 1 0.967114,-1.07844 z"
   class="st5"
   id="path77"
   inkscape:connector-curvature="0"
   style="fill:#999999;stroke:none;stroke-width:34;stroke-linecap:butt" />&#10;					</g>&#10;					<g
   id="shape20553-28">&#10;						<title
   id="title80">path28</title>&#10;						<path
   d="m 0.97,105.93 h 4.3 a 0.967114,0.977335 0 0 1 0.967114,0.97734 L 6.24,119.04 H 1.9 A 1.90088,1.92097 0 0 1 0,117.12 v -10.11 a 0.967114,0.977335 0 0 1 0.967114,-1.07844 z"
   class="st6"
   id="path82"
   inkscape:connector-curvature="0"
   style="fill:#999999;fill-opacity:0.5;stroke:none;stroke-width:34;stroke-linecap:butt" />&#10;					</g>&#10;				</g>&#10;				<g
   id="group20554-30"
   transform="translate(50.49,-0.101104)">&#10;					<title
   id="title86">g36</title>&#10;					<g
   id="shape20555-31">&#10;						<title
   id="title88">path32</title>&#10;						<path
   d="m 0.93,106.03 h 4.31 a 0.967114,0.977335 0 0 1 0.967114,0.97733 L 6.2,117.12 a 1.90088,1.92097 0 0 1 -1.9,1.92 H 0 v -11.93 a 0.967114,0.977335 0 0 1 0.933766,-1.07844 z"
   class="st5"
   id="path90"
   inkscape:connector-curvature="0"
   style="fill:#999999;stroke:none;stroke-width:34;stroke-linecap:butt" />&#10;					</g>&#10;					<g
   id="shape20556-33">&#10;						<title
   id="title93">path34</title>&#10;						<path
   d="m 0.93,106.03 h 4.31 a 0.967114,0.977335 0 0 1 0.967114,0.97733 L 6.2,117.12 a 1.90088,1.92097 0 0 1 -1.9,1.92 H 0 v -11.93 a 0.967114,0.977335 0 0 1 0.933766,-1.07844 z"
   class="st6"
   id="path95"
   inkscape:connector-curvature="0"
   style="fill:#999999;fill-opacity:0.5;stroke:none;stroke-width:34;stroke-linecap:butt" />&#10;					</g>&#10;				</g>&#10;				<g
   id="shape20557-35">&#10;					<title
   id="title99">path38</title>&#10;					<path
   d="m 0,117.12 v -4.21 h 56.69 v 4.21 a 1.90088,1.92097 0 0 1 -1.9,1.92 H 1.9 A 1.90088,1.92097 0 0 1 0,117.12 Z"
   class="st7"
   id="path101"
   inkscape:connector-curvature="0"
   style="fill:#949494;stroke:none;stroke-width:34;stroke-linecap:butt" />&#10;				</g>&#10;				<g
   id="shape20558-37"
   transform="translate(34.7449,-30.3368)">&#10;					<title
   id="title104">path4-9</title>&#10;					<path
   d="m 13.22,110.21 h -0.01 v -0.03 h -0.03 l -6.8,0.01 -6.35,-0.01 H 0 v 8.86 h 13.21 v -8.83 z"
   class="st8"
   id="path106"
   inkscape:connector-curvature="0"
   style="fill:#50e6ff;stroke:none;stroke-width:15.3533;stroke-linecap:butt" />&#10;				</g>&#10;				<g
   id="shape20559-39"
   transform="translate(34.7449,-30.3368)">&#10;					<title
   id="title109">path6-0</title>&#10;					<path
   d="m 0,110.21 v 8.83 l 6.61,-4.41 z"
   class="st9"
   id="path111"
   inkscape:connector-curvature="0"
   style="fill:#32bedd;stroke:none;stroke-width:15.3533;stroke-linecap:butt" />&#10;				</g>&#10;				<g
   id="shape20560-41"
   transform="translate(41.3559,-30.3368)">&#10;					<title
   id="title114">path8-3</title>&#10;					<path
   d="m 6.6,110.21 -6.6,4.42 6.6,4.41 z"
   class="st10"
   id="path116"
   inkscape:connector-curvature="0"
   style="fill:#198ab3;stroke:none;stroke-width:15.3533;stroke-linecap:butt" />&#10;				</g>&#10;				<g
   id="shape20561-43"
   transform="translate(34.7449,-30.3369)">&#10;					<title
   id="title119">path10-6</title>&#10;					<path
   d="M 6.6,114.63 0,119.02 v 0.02 h 13.21 v -0.02 z"
   class="st11"
   id="path121"
   inkscape:connector-curvature="0"
   style="fill:url(#linearGradient1);stroke:none;stroke-width:15.3533;stroke-linecap:butt" />&#10;				</g>&#10;				<g
   id="shape20562-46"
   transform="translate(24.3898,-14.8143)">&#10;					<title
   id="title124">path6-8</title>&#10;					<path
   d="m 0,106.5 2.2,-2.23 1.63,1.65 -2.2,2.22 z m 3.19,-3.23 2.2,-2.22 1.63,1.64 -2.2,2.23 z m 4.82,-1.59 -1.63,-1.63 2.18,-2.21 1.64,1.64 z m -1.63,15.15 1.63,-1.65 2.19,2.21 -1.64,1.65 z m -0.99,-1.01 -2.2,-2.22 1.63,-1.64 2.21,2.22 z M 2.2,112.6 0,110.37 l 1.63,-1.64 2.19,2.22 z"
   class="st12"
   id="path126"
   inkscape:connector-curvature="0"
   style="fill:#b8d432;stroke:none;stroke-width:10.3953;stroke-linecap:butt" />&#10;				</g>&#10;				<g
   id="shape20563-48"
   transform="translate(34.7075,-11.9581)">&#10;					<title
   id="title129">path4-9-1</title>&#10;					<path
   d="m 13.22,110.21 h -0.01 v -0.03 h -0.03 l -6.8,0.01 -6.35,-0.01 H 0 v 8.86 h 13.21 v -8.83 z"
   class="st8"
   id="path131"
   inkscape:connector-curvature="0"
   style="fill:#50e6ff;stroke:none;stroke-width:15.3533;stroke-linecap:butt" />&#10;				</g>&#10;				<g
   id="shape20564-50"
   transform="translate(34.7076,-11.9582)">&#10;					<title
   id="title134">path6-0-9</title>&#10;					<path
   d="m 0,110.21 v 8.83 l 6.61,-4.41 z"
   class="st9"
   id="path136"
   inkscape:connector-curvature="0"
   style="fill:#32bedd;stroke:none;stroke-width:15.3533;stroke-linecap:butt" />&#10;				</g>&#10;				<g
   id="shape20565-52"
   transform="translate(41.3186,-11.9582)">&#10;					<title
   id="title139">path8-3-6</title>&#10;					<path
   d="m 6.6,110.21 -6.6,4.42 6.6,4.41 z"
   class="st10"
   id="path141"
   inkscape:connector-curvature="0"
   style="fill:#198ab3;stroke:none;stroke-width:15.3533;stroke-linecap:butt" />&#10;				</g>&#10;				<g
   id="shape20566-54"
   transform="translate(34.7076,-11.9583)">&#10;					<title
   id="title144">path10-6-9</title>&#10;					<path
   d="M 6.6,114.63 0,119.02 v 0.02 h 13.21 v -0.02 z"
   class="st11"
   id="path146"
   inkscape:connector-curvature="0"
   style="fill:url(#linearGradient4669);stroke:none;stroke-width:15.3533;stroke-linecap:butt" />&#10;				</g>&#10;			</g>&#10;		</g>&#10;	</g><g
   id="shape13011-21"
   transform="translate(0,-2.78227)">&#10;					<title
   id="title55">Sheet.13011</title>&#10;					<path
   d="m 10.81,94 c -0.22,0 -0.56,-0.11 -0.79,-0.22 L 2.28,89.33 C 0.91,88.55 0,86.99 0,85.55 V 57.5 c 0,-1.45 0.91,-3.12 2.28,-3.78 l 7.74,-4.46 c 0.79,-0.44 1.82,-0.22 2.27,0.56 0.46,0.78 0.23,1.78 -0.56,2.23 L 3.98,56.5 c -0.22,0.11 -0.56,0.67 -0.56,1 v 28.05 c 0,0.33 0.34,0.89 0.56,1 L 11.73,91 c 0.79,0.44 1.02,1.45 0.56,2.22 C 11.95,93.67 11.38,94 10.81,94 Z M 45.88,49.04 c 0.23,0 0.57,0.11 0.79,0.22 l 7.75,4.46 c 1.36,0.78 2.27,2.33 2.27,3.78 v 28.05 c 0,1.44 -0.91,3.11 -2.27,3.78 l -7.75,4.45 C 45.88,94.23 44.85,94 44.4,93.22 43.94,92.45 44.17,91.44 44.97,91 l 7.74,-4.45 c 0.23,-0.11 0.57,-0.67 0.57,-1 V 57.5 c 0,-0.33 -0.34,-0.89 -0.57,-1 l -7.74,-4.45 c -0.8,-0.45 -1.03,-1.45 -0.57,-2.23 0.45,-0.44 0.91,-0.78 1.48,-0.78 z"
   class="st5"
   id="path57"
   inkscape:connector-curvature="0"
   style="fill:#7a7a7a;stroke:none;stroke-width:12.24;stroke-linecap:butt" />&#10;				</g>&#10;			</g>&#10;		</g>&#10;	</g></svg>
