<?xml version="1.0" encoding="UTF-8" standalone="no"?>
<!-- Generated by Microsoft Visio, SVG Export Function App Function.svg Page-1 -->

<svg
   width="56.689999"
   height="45.358387"
   viewBox="0 0 56.689998 45.358387"
   xml:space="preserve"
   class="st5"
   version="1.1"
   id="svg44"
   sodipodi:docname="Function App Function CRON.svg"
   style="font-size:12px;overflow:visible;color-interpolation-filters:sRGB;fill:none;fill-rule:evenodd;stroke-linecap:square;stroke-miterlimit:3"
   inkscape:version="1.3 (0e150ed6c4, 2023-07-21)"
   xmlns:inkscape="http://www.inkscape.org/namespaces/inkscape"
   xmlns:sodipodi="http://sodipodi.sourceforge.net/DTD/sodipodi-0.dtd"
   xmlns="http://www.w3.org/2000/svg"
   xmlns:svg="http://www.w3.org/2000/svg"
   xmlns:rdf="http://www.w3.org/1999/02/22-rdf-syntax-ns#"
   xmlns:cc="http://creativecommons.org/ns#"
   xmlns:dc="http://purl.org/dc/elements/1.1/"><metadata
   id="metadata48"><rdf:RDF><cc:Work
       rdf:about=""><dc:format>image/svg+xml</dc:format><dc:type
         rdf:resource="http://purl.org/dc/dcmitype/StillImage" /></cc:Work></rdf:RDF></metadata><sodipodi:namedview
   pagecolor="#ffffff"
   bordercolor="#666666"
   borderopacity="1"
   objecttolerance="10"
   gridtolerance="10"
   guidetolerance="10"
   inkscape:pageopacity="0"
   inkscape:pageshadow="2"
   inkscape:window-width="1080"
   inkscape:window-height="1857"
   id="namedview46"
   showgrid="false"
   inkscape:zoom="5.8876709"
   inkscape:cx="29.128666"
   inkscape:cy="21.995115"
   inkscape:window-x="-8"
   inkscape:window-y="-8"
   inkscape:window-maximized="1"
   inkscape:current-layer="svg44"
   inkscape:showpageshadow="0"
   inkscape:pagecheckerboard="0"
   inkscape:deskcolor="#505050" />&#10;	<style
   type="text/css"
   id="style2">&#10;	<![CDATA[
		.st1 {fill:#0078d4;stroke:none;stroke-linecap:butt;stroke-width:34}
		.st2 {fill:#5ea0ef;stroke:none;stroke-linecap:butt;stroke-width:34}
		.st3 {fill:url(#grad0-10);stroke:none;stroke-linecap:butt;stroke-width:34}
		.st4 {fill:#949494;stroke:none;stroke-linecap:butt;stroke-width:34}
		.st5 {fill:none;fill-rule:evenodd;font-size:12px;overflow:visible;stroke-linecap:square;stroke-miterlimit:3}
	]]>&#10;	</style>&#10;&#10;	<defs
   id="Patterns_And_Gradients">&#10;		<linearGradient
   id="grad0-10"
   x1="-0.00050639078"
   y1="68.422577"
   x2="30.393227"
   y2="68.422577"
   gradientTransform="scale(0.87158095,1.1473404)"
   gradientUnits="userSpaceOnUse">&#10;			<stop
   offset="0"
   stop-color="#0078d4"
   stop-opacity="1"
   id="stop4" />&#10;			<stop
   offset="0.38"
   stop-color="#2989e0"
   stop-opacity="1"
   id="stop6" />&#10;			<stop
   offset="0.785"
   stop-color="#4f9aeb"
   stop-opacity="1"
   id="stop8" />&#10;			<stop
   offset="1"
   stop-color="#5ea0ef"
   stop-opacity="1"
   id="stop10" />&#10;		</linearGradient>&#10;	</defs>&#10;	<g
   id="g42"
   transform="translate(-34,-34.000107)">&#10;		<title
   id="title14">Page-1</title>&#10;		<g
   id="group14988-1"
   transform="translate(34,-34.0157)">&#10;			<title
   id="title16">Function App Function.14988</title>&#10;			<g
   id="group14989-2">&#10;				<title
   id="title18">Sheet.14989</title>&#10;				&#10;				&#10;				<g
   id="shape14992-7"
   transform="translate(8.71884,-8.21265)">&#10;					<title
   id="title30">Sheet.14992</title>&#10;					<path
   d="m 25.6,79.11 a 3.41952,3.372 -180 0 0 -2.16,-0.6 8.92351,8.79949 -180 0 0 -4.45,1.32 10.649,10.501 -180 0 0 -3.75,3.6 21.4429,21.1449 -180 0 0 -2.28,5.91 H 8.83 l -0.17,0.69 -0.32,1.22 -0.29,1.13 h 4.14 l -3.23,12.79 a 8.77552,8.65356 0 0 1 -1.32,3.47 2.51899,2.48398 0 0 1 -1.82,0.52 17.4944,17.2512 0 0 1 -2.21,-0.15 10.6459,10.4979 -180 0 0 -1.19,-0.09 2.6103,2.57402 -180 0 0 -1.69,0.54 1.96796,1.94061 -180 0 0 -0.73,1.55 2.17892,2.14864 -180 0 0 0.94,1.76 3.57066,3.52104 -180 0 0 2.21,0.6 9.60678,9.47327 -180 0 0 6.66,-2.79 16.1813,15.9565 -180 0 0 4.31,-7.97 l 2.52,-10.23 h 4.66 l 0.16,-0.72 0.28,-1.21 0.26,-1.11 h -4.58 l 0.6,-2.51 a 11.0961,10.9419 0 0 1 1.35,-3.46 c 0.43,-0.64 0.86,-0.97 1.29,-0.97 a 5.66772,5.58895 0 0 1 1.11,0.15 13.7285,13.5377 -180 0 0 2.48,0.38 2.25134,2.22006 -180 0 0 1.59,-0.6 2.06872,2.03997 -180 0 0 0.65,-1.51 2.12854,2.09896 -180 0 0 -0.89,-1.71 z M 1.49,112.02 a 1.45471,1.4345 0 0 1 -0.42,-0.47 1.45471,1.4345 -180 0 0 0.42,0.47 2.04668,2.01823 -180 0 0 0.8,0.34 2.04668,2.01823 0 0 1 -0.81,-0.33 z"
   class="st3"
   id="path32"
   inkscape:connector-curvature="0"
   style="fill:url(#grad0-10);stroke:none;stroke-width:34;stroke-linecap:butt" />&#10;				</g>&#10;				<g
   id="shape14993-11">&#10;					<title
   id="title35">Sheet.14993</title>&#10;					<path
   d="M 6.49,85.17 V 73.75 c 0,-1.49 0.55,-2.38 1.6,-2.71 A 1.55547,1.53386 -180 0 0 9.15,69.57 1.57437,1.55249 -180 0 0 7.46,68.02 6.00463,5.92118 -180 0 0 3.94,69.21 6.15577,6.07022 -180 0 0 2.43,73.87 v 11.65 c 0,1.62 -0.5,2.6 -1.5,2.94 A 1.28468,1.26683 -180 0 0 0,89.64 v 2.1 a 1.28783,1.26993 -180 0 0 0.94,1.17 c 1.01,0.35 1.51,1.33 1.51,2.94 v 11.65 a 6.15577,6.07022 -180 0 0 1.5,4.69 6.00463,5.92118 -180 0 0 3.53,1.18 1.57437,1.55249 -180 0 0 1.69,-1.55 1.55547,1.53386 -180 0 0 -1.07,-1.47 C 7.05,110.02 6.5,109.14 6.5,107.64 V 96.2 c 0,-2.63 -0.69,-4.38 -2.43,-5.07 0,0 -0.71,-0.15 -0.71,-0.44 0,-0.35 0.88,-0.6 0.88,-0.6 1.74,-0.68 2.25,-2.29 2.25,-4.92 z m 43.7,0 V 73.75 c 0,-1.49 -0.55,-2.38 -1.6,-2.71 a 1.55547,1.53386 0 0 1 -1.06,-1.47 1.57437,1.55249 0 0 1 1.69,-1.55 6.00463,5.92118 0 0 1 3.52,1.19 6.15577,6.07022 0 0 1 1.51,4.68 v 11.63 c 0,1.62 0.5,2.6 1.5,2.94 a 1.28468,1.26683 0 0 1 0.94,1.18 v 2.1 a 1.28783,1.26993 0 0 1 -0.94,1.17 c -1,0.35 -1.5,1.33 -1.5,2.94 v 11.65 a 6.15577,6.07022 0 0 1 -1.51,4.69 6.00463,5.92118 0 0 1 -3.52,1.18 1.57437,1.55249 0 0 1 -1.69,-1.55 1.55547,1.53386 0 0 1 1.06,-1.47 c 1.05,-0.33 1.6,-1.21 1.6,-2.71 V 96.2 c 0,-2.63 0.7,-4.38 2.43,-5.07 0,0 0.71,-0.15 0.72,-0.44 0,-0.35 -0.89,-0.6 -0.89,-0.6 -1.74,-0.68 -2.26,-2.29 -2.26,-4.92 z"
   class="st4"
   id="path37"
   inkscape:connector-curvature="0"
   style="fill:#949494;stroke:none;stroke-width:34;stroke-linecap:butt" />&#10;				</g>&#10;			</g>&#10;		</g>&#10;	</g>&#10;<g
   id="g62"
   transform="matrix(0.41110208,0,0,0.41110208,19.850615,14.742478)"
   style="font-size:12px;overflow:visible;color-interpolation-filters:sRGB;fill:none;fill-rule:evenodd;stroke-linecap:square;stroke-miterlimit:3">&#10;		<title
   id="title4">Page-1</title>&#10;		<g
   id="group13000-1"
   transform="translate(12.24,-34.0157)">&#10;			<title
   id="title6">Scheduler Job Collection.13000</title>&#10;			<g
   id="group13001-2">&#10;				<title
   id="title8">Sheet.13001</title>&#10;				<g
   id="shape13002-3"
   transform="translate(18.2146,-13.3549)">&#10;					<title
   id="title10">Sheet.13002</title>&#10;					<path
   d="m 12.86,66.63 c -3.87,0.44 -7.17,2.22 -9.44,5 -2.28,2.79 -3.42,6.35 -3.08,10.02 0.46,3.78 2.28,7.01 5.12,9.24 2.85,2.22 6.49,3.34 10.25,3 3.87,-0.44 7.17,-2.33 9.45,-5.01 2.28,-2.78 3.41,-6.34 3.07,-10.01 -0.45,-3.79 -2.39,-7.01 -5.23,-9.35 -2.39,-1.89 -5.47,-3 -8.66,-3 -0.45,0 -0.91,0 -1.48,0.11 z"
   class="st1"
   id="path12"
   inkscape:connector-curvature="0"
   style="fill:#ffffff;stroke:none;stroke-width:12.24;stroke-linecap:butt" />&#10;				</g>&#10;				<g
   id="shape13003-5"
   transform="translate(25.3866,-11.0178)">&#10;					<title
   id="title15">Sheet.13003</title>&#10;					<path
   d="m 23.22,76.2 c -0.45,-4.45 -2.84,-8.35 -6.14,-10.91 -0.69,-0.56 -1.37,-1 -2.05,-1.33 l -1.26,2.44 c 0.57,0.34 1.03,0.67 1.6,1.01 2.73,2.22 4.67,5.34 5.12,9.01 0.34,3.67 -0.8,7.12 -2.96,9.79 -2.16,2.67 -5.46,4.46 -9.22,4.9 C 5.81,91.33 3.42,90.89 1.25,90 L 0,92.45 c 2.62,1.22 5.58,1.78 8.65,1.44 4.56,-0.44 8.43,-2.67 11.04,-5.9 2.62,-3.11 3.99,-7.34 3.53,-11.79 z"
   class="st2"
   id="path17"
   inkscape:connector-curvature="0"
   style="fill:#3999c6;stroke:none;stroke-width:12.24;stroke-linecap:butt" />&#10;				</g>&#10;				<g
   id="shape13004-7"
   transform="translate(15.3686,-12.7985)">&#10;					<title
   id="title20-6">Sheet.13004</title>&#10;					<path
   d="M 8.31,90.11 C 5.58,87.99 3.76,84.77 3.3,81.09 2.96,77.42 4.1,73.97 6.26,71.3 c 2.16,-2.67 5.47,-4.45 9.22,-4.9 3.08,-0.33 5.92,0.34 8.31,1.78 l 1.26,-2.44 c -2.96,-1.67 -6.38,-2.45 -9.91,-2.12 -4.55,0.45 -8.42,2.67 -11.04,5.9 -2.62,3.23 -4.1,7.35 -3.53,11.8 0.45,4.45 2.73,8.23 6.03,10.79 1.03,0.78 2.17,1.56 3.42,2.12 l 1.25,-2.45 c -1.14,-0.45 -2.05,-1 -2.96,-1.67 z"
   class="st3"
   id="path22-8"
   inkscape:connector-curvature="0"
   style="fill:#a0a1a2;stroke:none;stroke-width:12.24;stroke-linecap:butt" />&#10;				</g>&#10;				<g
   id="shape13005-9"
   transform="translate(15.3686,-12.7985)">&#10;					<title
   id="title25-5">Sheet.13005</title>&#10;					<path
   d="M 8.31,90.11 C 5.58,87.99 3.76,84.77 3.3,81.09 2.96,77.42 4.1,73.97 6.26,71.3 c 2.16,-2.67 5.47,-4.45 9.22,-4.9 3.08,-0.33 5.92,0.34 8.31,1.78 l 1.26,-2.44 c -2.96,-1.67 -6.38,-2.45 -9.91,-2.12 -4.55,0.45 -8.42,2.67 -11.04,5.9 -2.62,3.23 -4.1,7.35 -3.53,11.8 0.45,4.45 2.73,8.23 6.03,10.79 1.03,0.78 2.17,1.56 3.42,2.12 l 1.25,-2.45 c -1.14,-0.45 -2.05,-1 -2.96,-1.67 z"
   class="st4"
   id="path27-2"
   inkscape:connector-curvature="0"
   style="fill:#59b4d9;stroke:none;stroke-width:12.24;stroke-linecap:butt" />&#10;				</g>&#10;				<g
   id="shape13006-11"
   transform="translate(31.7617,-22.8146)">&#10;					<title
   id="title30-6">Sheet.13006</title>&#10;					<path
   d="M 7.4,93.89 1.02,91.67 C 0.34,91.44 0,90.67 0.23,90 0.46,89.33 1.25,89 1.94,89.22 l 6.37,2.22 c 0.68,0.23 1.02,1.01 0.8,1.67 -0.23,0.67 -1.03,1.12 -1.71,0.78 z"
   class="st5"
   id="path32-0"
   inkscape:connector-curvature="0"
   style="fill:#7a7a7a;stroke:none;stroke-width:12.24;stroke-linecap:butt" />&#10;				</g>&#10;				<g
   id="shape13007-13"
   transform="translate(30.7371,-25.5969)">&#10;					<title
   id="title35-0">Sheet.13007</title>&#10;					<path
   d="M 1.37,94.23 C 0.68,94.23 0,93.67 0,92.89 V 81.98 c 0,-0.66 0.57,-1.33 1.37,-1.33 0.68,0 1.36,0.56 1.36,1.33 v 10.91 c 0,0.78 -0.57,1.34 -1.36,1.34 z"
   class="st5"
   id="path37-1"
   inkscape:connector-curvature="0"
   style="fill:#7a7a7a;stroke:none;stroke-width:12.24;stroke-linecap:butt" />&#10;				</g>&#10;				<g
   id="shape13008-15"
   transform="translate(30.1679,-24.9292)">&#10;					<title
   id="title40">Sheet.13008</title>&#10;					<ellipse
   cx="1.9353"
   cy="92.334503"
   rx="1.9353"
   ry="1.89195"
   class="st6"
   id="ellipse42"
   style="fill:#1e1e1e;stroke:none;stroke-width:12.24;stroke-linecap:butt" />&#10;				</g>&#10;				<g
   id="shape13009-17"
   transform="translate(8.08272,-0.111291)">&#10;					<title
   id="title45">Sheet.13009</title>&#10;					<path
   d="m 22.43,81.43 6.71,6.12 -5.92,6.68 0.12,-4.34 h -1.6 C 9.79,89.89 0,80.43 0,68.63 0,56.83 9.56,47.48 21.63,47.48 c 6.03,0 11.5,2.45 15.48,6.35 -3.41,-3.23 -8.08,-5.23 -13.2,-5.34 -10.36,0 -18.79,8.23 -18.79,18.36 0,9.79 8.09,17.69 17.88,18.36 z"
   class="st7"
   id="path47"
   inkscape:connector-curvature="0"
   style="fill:#b8d432;stroke:none;stroke-width:12.24;stroke-linecap:butt" />&#10;				</g>&#10;				<g
   id="shape13010-19"
   transform="translate(7.96888)">&#10;					<title
   id="title50">Sheet.13010</title>&#10;					<path
   d="M 23.79,87.88 C 11.84,87.44 2.62,77.64 3.07,66.07 3.42,58.84 7.4,52.6 13.21,49.04 5.46,52.27 0,59.84 0,68.63 0,80.32 9.68,89.89 21.74,89.89 h 1.6 l -0.12,4.34 5.92,-6.68 c -1.7,0.33 -3.53,0.44 -5.35,0.33 z"
   class="st8"
   id="path52"
   inkscape:connector-curvature="0"
   style="fill:#1e1e1e;fill-opacity:0.2;stroke:none;stroke-width:12.24;stroke-linecap:butt" />&#10;				</g>&#10;				<g
   id="shape13011-21"
   transform="translate(0,-2.78227)">&#10;					<title
   id="title55">Sheet.13011</title>&#10;					<path
   d="m 10.81,94 c -0.22,0 -0.56,-0.11 -0.79,-0.22 L 2.28,89.33 C 0.91,88.55 0,86.99 0,85.55 V 57.5 c 0,-1.45 0.91,-3.12 2.28,-3.78 l 7.74,-4.46 c 0.79,-0.44 1.82,-0.22 2.27,0.56 0.46,0.78 0.23,1.78 -0.56,2.23 L 3.98,56.5 c -0.22,0.11 -0.56,0.67 -0.56,1 v 28.05 c 0,0.33 0.34,0.89 0.56,1 L 11.73,91 c 0.79,0.44 1.02,1.45 0.56,2.22 C 11.95,93.67 11.38,94 10.81,94 Z M 45.88,49.04 c 0.23,0 0.57,0.11 0.79,0.22 l 7.75,4.46 c 1.36,0.78 2.27,2.33 2.27,3.78 v 28.05 c 0,1.44 -0.91,3.11 -2.27,3.78 l -7.75,4.45 C 45.88,94.23 44.85,94 44.4,93.22 43.94,92.45 44.17,91.44 44.97,91 l 7.74,-4.45 c 0.23,-0.11 0.57,-0.67 0.57,-1 V 57.5 c 0,-0.33 -0.34,-0.89 -0.57,-1 l -7.74,-4.45 c -0.8,-0.45 -1.03,-1.45 -0.57,-2.23 0.45,-0.44 0.91,-0.78 1.48,-0.78 z"
   class="st5"
   id="path57"
   inkscape:connector-curvature="0"
   style="fill:#7a7a7a;stroke:none;stroke-width:12.24;stroke-linecap:butt" />&#10;				</g>&#10;			</g>&#10;		</g>&#10;	</g></svg>
