<?xml version="1.0" encoding="UTF-8" standalone="no"?>
<svg
   width="24"
   height="24"
   class="wd-icon-split wd-icon"
   focusable="false"
   role="presentation"
   viewBox="0 0 24 24"
   version="1.1"
   id="svg2"
   sodipodi:docname="Workday-BP.svg"
   inkscape:version="1.3 (0e150ed6c4, 2023-07-21)"
   xmlns:inkscape="http://www.inkscape.org/namespaces/inkscape"
   xmlns:sodipodi="http://sodipodi.sourceforge.net/DTD/sodipodi-0.dtd"
   xmlns="http://www.w3.org/2000/svg"
   xmlns:svg="http://www.w3.org/2000/svg">
  <defs
     id="defs2" />
  <sodipodi:namedview
     id="namedview2"
     pagecolor="#505050"
     bordercolor="#eeeeee"
     borderopacity="1"
     inkscape:showpageshadow="0"
     inkscape:pageopacity="0"
     inkscape:pagecheckerboard="0"
     inkscape:deskcolor="#505050"
     inkscape:zoom="47.791667"
     inkscape:cx="12"
     inkscape:cy="12"
     inkscape:window-width="2560"
     inkscape:window-height="1361"
     inkscape:window-x="1341"
     inkscape:window-y="341"
     inkscape:window-maximized="1"
     inkscape:current-layer="g2" />
  <g
     class="wd-icon-container"
     id="g2">
    <path
       d="M16.586 6H14.5a.5.5 0 0 1-.5-.5v-1a.5.5 0 0 1 .5-.5h5a.5.5 0 0 1 .5.5v5a.5.5 0 0 1-.5.5h-1a.5.5 0 0 1-.5-.5V7.414l-5.293 5.293A1 1 0 0 1 12 13H4.5a.5.5 0 0 1-.5-.5v-1a.5.5 0 0 1 .5-.5h6.672a1 1 0 0 0 .707-.293L16.586 6z"
       class="wd-icon-fill"
       id="path1"
       style="fill:#ffa126;fill-opacity:1" />
    <path
       fill-rule="evenodd"
       d="M18 16.586l-2.94-2.94a.5.5 0 0 0-.706 0l-.708.708a.5.5 0 0 0 0 .707L16.586 18H14.5a.5.5 0 0 0-.5.5v1a.5.5 0 0 0 .5.5h5a.5.5 0 0 0 .5-.5v-5a.5.5 0 0 0-.5-.5h-1a.5.5 0 0 0-.5.5v2.086z"
       class="wd-icon-fill"
       clip-rule="evenodd"
       id="path2"
       style="fill:#ffa126;fill-opacity:1" />
  </g>
</svg>
