<svg xmlns="http://www.w3.org/2000/svg" width="56" height="56" class="wd-accent-api wd-accent" focusable="false" role="presentation" viewBox="0 0 56 56">
	<g fill="none" fill-rule="evenodd" class="wd-icon-container">
		<path fill="#005DBA" fill-rule="nonzero" d="M17.98 26.257l8 4.5A2 2 0 0 1 27 32.5v9a2 2 0 0 1-1.02 1.743l-8 4.5a2 2 0 0 1-1.96 0l-8-4.5A2 2 0 0 1 7 41.5v-9a2 2 0 0 1 1.02-1.743l8-4.5a2 2 0 0 1 1.96 0zm22 0l8 4.5A2 2 0 0 1 49 32.5v9a2 2 0 0 1-1.02 1.743l-8 4.5a2 2 0 0 1-1.96 0l-8-4.5A2 2 0 0 1 29 41.5v-9a2 2 0 0 1 1.02-1.743l8-4.5a2 2 0 0 1 1.96 0zM9 34.118V41.5l7 3.938v-7.82l-7-3.5zm16 0l-7 3.5v7.82l7-3.938v-7.382zm6 0V41.5l7 3.938v-7.82l-7-3.5zm16 0l-7 3.5v7.82l7-3.938v-7.382zM17 28l-7.418 4.173L17 35.882l7.418-3.709L17 28zm22 0l-7.418 4.173L39 35.882l7.418-3.709L39 28zM28.98 7.257l8 4.5A2 2 0 0 1 38 13.5v9a2 2 0 0 1-1.02 1.743l-8 4.5a2 2 0 0 1-1.96 0l-8-4.5A2 2 0 0 1 18 22.5v-9a2 2 0 0 1 1.02-1.743l8-4.5a2 2 0 0 1 1.96 0zM20 15.118V22.5l7 3.938v-7.82l-7-3.5zm16 0l-7 3.5v7.82l7-3.938v-7.382zM28 9l-7.418 4.173L28 16.882l7.418-3.709L28 9z" class="color-500"/>
		<path fill="#FFF" d="M25 34.118V41.5l-7.001 3.938.001-7.82 7-3.5zm22 0V41.5l-7.001 3.938.001-7.82 7-3.5zm-38 0l7 3.5-.001 7.819L9 41.5v-7.382zm21.999 0l7.001 3.5-.001 7.819L31 41.5l-.001-7.382zM17 28l7.418 4.172L17 35.882l-7.418-3.709L17 28zm22 0l7.418 4.172L39 35.882l-7.419-3.709L39 28zm-3-12.882V22.5l-7.001 3.938.001-7.82 7-3.5zm-16.001 0l7.001 3.5-.001 7.819L20 22.5l-.001-7.382zM28 9l7.418 4.172L28 16.882l-7.419-3.709L28 9z" class="french-vanilla-100"/>
	</g>
</svg>