<svg width="24" height="24" class="wd-icon-table wd-icon" viewBox="0 0 24 24" fill="none" xmlns="http://www.w3.org/2000/svg"><path class="wd-icon-fill" fill-rule="evenodd" clip-rule="evenodd" d="M4 3.5C4 3.22386 4.22386 3 4.5 3H16.5C16.7761 3 17 3.22386 17 3.5V10.5C17 10.7761 16.7761 11 16.5 11H4.5C4.22386 11 4 10.7761 4 10.5V3.5ZM4 12.5C4 12.2239 4.22386 12 4.5 12H13.9995C13.3132 12.5156 12.7639 13.2037 12.416 14H6V18H12.416C12.7639 18.7963 13.3132 19.4844 13.9995 20H4.5C4.22386 20 4 19.7761 4 19.5V12.5ZM15 9H6V5H15V9ZM14 7C14 7.55228 13.5523 8 13 8C12.4477 8 12 7.55228 12 7C12 6.44771 12.4477 6 13 6C13.0345 6 13.0686 6.00175 13.1022 6.00516C13.6065 6.05637 14 6.48223 14 7ZM21 16C21 18.2091 19.2091 20 17 20C14.7909 20 13 18.2091 13 16C13 13.7909 14.7909 12 17 12C19.2091 12 21 13.7909 21 16ZM19.6949 16.1519C19.8885 15.9576 19.8894 15.6436 19.6969 15.4482L17.423 13.1394C17.236 12.9495 16.9329 12.9397 16.734 13.1171L16.6386 13.2022C16.4255 13.3922 16.4145 13.7217 16.6144 13.9255L17.9358 15.2727H15.5556H14.5C14.2239 15.2727 14 15.4965 14 15.7727V15.854C14 16.1308 14.2249 16.3549 14.5017 16.354L17.9358 16.3426L16.6408 17.6564C16.4415 17.8585 16.4503 18.1858 16.6602 18.377L16.7357 18.4458C16.9334 18.6259 17.2379 18.6185 17.4266 18.429L19.6949 16.1519Z" fill="#7B858F"></path></svg>