<?xml version="1.0" encoding="UTF-8" standalone="no"?>
<svg
   width="24"
   height="24"
   class="wd-icon-doc wd-icon"
   focusable="false"
   role="presentation"
   viewBox="0 0 24 24"
   version="1.1"
   id="svg3"
   sodipodi:docname="Workday-Report.svg"
   inkscape:version="1.3 (0e150ed6c4, 2023-07-21)"
   xmlns:inkscape="http://www.inkscape.org/namespaces/inkscape"
   xmlns:sodipodi="http://sodipodi.sourceforge.net/DTD/sodipodi-0.dtd"
   xmlns="http://www.w3.org/2000/svg"
   xmlns:svg="http://www.w3.org/2000/svg">
  <defs
     id="defs3" />
  <sodipodi:namedview
     id="namedview3"
     pagecolor="#505050"
     bordercolor="#eeeeee"
     borderopacity="1"
     inkscape:showpageshadow="0"
     inkscape:pageopacity="0"
     inkscape:pagecheckerboard="0"
     inkscape:deskcolor="#505050"
     inkscape:zoom="33.793812"
     inkscape:cx="11.451801"
     inkscape:cy="14.662448"
     inkscape:window-width="2560"
     inkscape:window-height="1361"
     inkscape:window-x="1341"
     inkscape:window-y="341"
     inkscape:window-maximized="1"
     inkscape:current-layer="svg3" />
  <g
     fill-rule="evenodd"
     class="wd-icon-container"
     id="g3"
     transform="matrix(1.1967087,0,0,1.1967087,-2.4276221,-2.3408503)">
    <path
       d="M 4,2.505 C 4,2.226 4.226,2 4.496,2 H 19.504 C 19.778,2 20,2.214 20,2.505 v 0.99 L 19.992,3.576 20,20.492 v 1.003 A 0.503,0.503 0 0 1 19.504,22 H 4.496 A 0.493,0.493 0 0 1 4,21.495 Z M 18,4 H 6 v 16 h 12 z"
       class="wd-icon-fill"
       id="path2"
       style="fill:#000000;fill-opacity:1;stroke:none;stroke-opacity:1" />
    <path
       d="M 7,14.505 C 7,14.226 7.228,14 7.51,14 h 8.98 A 0.5,0.5 0 0 1 17,14.505 v 0.99 A 0.507,0.507 0 0 1 16.49,16 H 7.51 A 0.5,0.5 0 0 1 7,15.495 Z m 0,-6 C 7,8.226 7.233,8 7.503,8 h 5.994 C 13.775,8 14,8.214 14,8.505 v 0.99 A 0.509,0.509 0 0 1 13.497,10 H 7.503 A 0.497,0.497 0 0 1 7,9.495 Z m 0,3 C 7,11.226 7.228,11 7.51,11 h 8.98 A 0.5,0.5 0 0 1 17,11.505 v 0.99 A 0.507,0.507 0 0 1 16.49,13 H 7.51 A 0.5,0.5 0 0 1 7,12.495 Z"
       class="wd-icon-accent"
       id="path3" />
  </g>
</svg>
