<?xml version="1.0" encoding="UTF-8" standalone="no"?>
<svg
   width="24"
   height="24"
   class="wd-icon-flow wd-icon"
   focusable="false"
   role="presentation"
   viewBox="0 0 24 24"
   version="1.1"
   id="svg1"
   sodipodi:docname="Workday-Orchestration.svg"
   inkscape:version="1.3 (0e150ed6c4, 2023-07-21)"
   xmlns:inkscape="http://www.inkscape.org/namespaces/inkscape"
   xmlns:sodipodi="http://sodipodi.sourceforge.net/DTD/sodipodi-0.dtd"
   xmlns="http://www.w3.org/2000/svg"
   xmlns:svg="http://www.w3.org/2000/svg">
  <defs
     id="defs1" />
  <sodipodi:namedview
     id="namedview1"
     pagecolor="#505050"
     bordercolor="#eeeeee"
     borderopacity="1"
     inkscape:showpageshadow="0"
     inkscape:pageopacity="0"
     inkscape:pagecheckerboard="0"
     inkscape:deskcolor="#505050"
     inkscape:zoom="47.791667"
     inkscape:cx="12"
     inkscape:cy="12"
     inkscape:window-width="2560"
     inkscape:window-height="1361"
     inkscape:window-x="1341"
     inkscape:window-y="341"
     inkscape:window-maximized="1"
     inkscape:current-layer="svg1" />
  <g
     fill-rule="evenodd"
     class="wd-icon-container"
     id="g1">
    <path
       fill-rule="nonzero"
       d="M12.274 10.288c.427.389.726 1.08.726 1.681v8.533a.494.494 0 0 1-.505.498h-.99a.502.502 0 0 1-.505-.498v-8.533c0 .019-.044-.083-.027-.068L5 6.461V8.5A.496.496 0 0 1 4.495 9h-.99A.503.503 0 0 1 3 8.509V3.491C3 3.22 3.228 3 3.491 3h5.018A.49.49 0 0 1 9 3.505v.99A.509.509 0 0 1 8.5 5H6.468l5.806 5.288zm1.908-2.327a.542.542 0 0 0-.076.725l.67.885c.167.22.47.248.678.062L19 6.462v2.037c0 .276.214.501.505.501h.99A.503.503 0 0 0 21 8.509V3.491A.496.496 0 0 0 20.509 3h-5.018a.49.49 0 0 0-.491.505v.99c0 .279.223.505.503.505h2.107l-3.428 2.96z"
       class="wd-icon-fill"
       id="path1"
       style="fill:#ffa126;fill-opacity:1" />
  </g>
</svg>
