<?xml version="1.0" encoding="UTF-8" standalone="no"?>
<!-- Created with Inkscape (http://www.inkscape.org/) -->

<svg
   version="1.1"
   id="svg1"
   width="636"
   height="826.66669"
   viewBox="0 0 636 826.66669"
   sodipodi:docname="Workday.svg"
   inkscape:version="1.4 (86a8ad7, 2024-10-11)"
   xmlns:inkscape="http://www.inkscape.org/namespaces/inkscape"
   xmlns:sodipodi="http://sodipodi.sourceforge.net/DTD/sodipodi-0.dtd"
   xmlns="http://www.w3.org/2000/svg"
   xmlns:svg="http://www.w3.org/2000/svg">
  <defs
     id="defs1" />
  <sodipodi:namedview
     id="namedview1"
     pagecolor="#505050"
     bordercolor="#eeeeee"
     borderopacity="1"
     inkscape:showpageshadow="0"
     inkscape:pageopacity="0"
     inkscape:pagecheckerboard="0"
     inkscape:deskcolor="#505050"
     inkscape:zoom="1.4116935"
     inkscape:cx="318.05771"
     inkscape:cy="413.33334"
     inkscape:window-width="2560"
     inkscape:window-height="1369"
     inkscape:window-x="1072"
     inkscape:window-y="230"
     inkscape:window-maximized="1"
     inkscape:current-layer="g1" />
  <g
     inkscape:groupmode="layer"
     inkscape:label="Image"
     id="g1">
    <path
       style="display:inline;fill:#0f2e66;fill-opacity:1"
       d="m 117.60204,823.80571 c -6.18869,-3.96269 -8.90061,-10.1222 -23.396061,-53.13902 C 60.893099,671.80713 36.487996,581.25277 9.2307753,455.36889 -0.30656919,411.32193 -1.5060789,401.41026 2.0809391,396.28907 c 4.6320195,-6.61313 7.0204363,-6.95573 48.4925329,-6.95573 42.488988,0 46.871236,0.66644 52.031018,7.91268 3.03767,4.26602 3.84025,7.5012 10.11022,40.75399 6.72095,35.6446 15.63743,79.32268 22.72767,111.33334 9.67821,43.69466 33.59069,137.47751 35.55429,139.44112 0.27371,0.27371 18.08624,-63.23857 39.5834,-141.1384 21.49715,-77.89984 40.36093,-144.03606 41.9195,-146.96939 1.9222,-3.61771 4.7475,-6.29838 8.78295,-8.33334 5.8588,-2.95442 6.72049,-3 56.71748,-3 49.99699,0 50.85868,0.0456 56.71748,3 4.04376,2.03915 6.85315,4.70818 8.77156,8.33334 1.55231,2.93333 20.41234,69.0733 41.91118,146.97771 21.49884,77.90441 39.32487,141.40832 39.6134,141.11979 0.88986,-0.88987 10.65655,-37.06659 19.64425,-72.76416 13.96681,-55.47373 23.93687,-101.81836 41.78687,-194.24132 6.40836,-33.18093 5.03398,-32.42536 58.98179,-32.42536 41.47209,0 43.86051,0.3426 48.49253,6.95573 3.48306,4.97276 2.44193,14.30173 -5.97227,53.51416 -19.89117,92.69819 -40.38201,173.72337 -62.76764,248.19679 -12.2565,40.77541 -35.60711,109.87599 -39.60876,117.21268 -6.28062,11.515 -5.9715,11.45399 -58.03472,11.45399 -43.54027,0 -45.35415,-0.10204 -50.19695,-2.82385 -2.7634,-1.55312 -6.2284,-5.00312 -7.70001,-7.66667 -1.47161,-2.66355 -17.21165,-56.14282 -34.97787,-118.84282 -17.76622,-62.7 -37.78923,-133.32338 -44.49558,-156.94084 l -12.19337,-42.94084 -11.79351,41.60751 c -24.62583,86.87999 -42.63545,150.39832 -60.14381,212.12194 -9.96099,35.11627 -19.28191,65.4923 -20.71314,67.50229 -5.50334,7.72872 -7.35819,7.98542 -57.52294,7.96081 -44.31132,-0.0217 -45.9413,-0.1139 -50.19645,-2.83851 z"
       id="path1" />
    <path
       style="display:inline;fill:#fc5b05;fill-opacity:1"
       d="M 12.805763,257.2821 C 7.1809616,255.59889 1.496736,249.56025 0.49106517,244.19956 -0.62482635,238.25135 1.4952674,229.85166 8.954817,210.66667 26.15601,166.42745 51.961104,127.87554 87.505944,93.314018 114.83361,66.742347 140.71886,48.555434 174,32.543505 204.07719,18.073029 234.61403,8.4346969 266.66667,3.2951512 288.08144,-0.13864388 336.2919,-0.87175182 358.03559,1.9057581 396.12483,6.771225 429.73651,16.778719 463.33333,33.256957 530.56746,66.233287 582.92,118.36465 615.38541,184.66667 c 12.22081,24.95777 19.52928,44.43679 20.30635,54.12184 0.55275,6.88925 0.27426,7.82408 -3.6686,12.31474 -2.63342,2.9993 -6.29764,5.40643 -9.57205,6.28813 -3.36275,0.9055 -18.90597,1.27846 -42.45016,1.0186 -35.17342,-0.38821 -37.34449,-0.55709 -40.90624,-3.18188 -2.43197,-1.79221 -7.29573,-9.80861 -13.76138,-22.68139 -14.49946,-28.86767 -26.76511,-45.88794 -47.55031,-65.98253 -13.41079,-12.96521 -21.09996,-19.14674 -35.11635,-28.23101 -51.98184,-33.69031 -114.07828,-44.565348 -176,-30.82312 -69.00723,15.3147 -128.61676,64.16915 -158.16641,129.62915 -6.46696,14.32598 -9.722625,18.33346 -16.401251,20.18873 -5.812615,1.6147 -73.87568,1.57536 -79.293246,-0.0458 z"
       id="path2" />
  </g>
</svg>
