<?xml version="1.0" encoding="UTF-8" standalone="no"?>
<svg
   width="24"
   height="24"
   class="wd-icon-rocket wd-icon"
   focusable="false"
   role="presentation"
   viewBox="0 0 24 24"
   version="1.1"
   id="svg3"
   sodipodi:docname="Workday-Tasks.svg"
   inkscape:version="1.3 (0e150ed6c4, 2023-07-21)"
   xmlns:inkscape="http://www.inkscape.org/namespaces/inkscape"
   xmlns:sodipodi="http://sodipodi.sourceforge.net/DTD/sodipodi-0.dtd"
   xmlns="http://www.w3.org/2000/svg"
   xmlns:svg="http://www.w3.org/2000/svg">
  <defs
     id="defs3" />
  <sodipodi:namedview
     id="namedview3"
     pagecolor="#505050"
     bordercolor="#eeeeee"
     borderopacity="1"
     inkscape:showpageshadow="0"
     inkscape:pageopacity="0"
     inkscape:pagecheckerboard="0"
     inkscape:deskcolor="#505050"
     inkscape:zoom="33.793812"
     inkscape:cx="12.650245"
     inkscape:cy="7.6197383"
     inkscape:window-width="1350"
     inkscape:window-height="2321"
     inkscape:window-x="-9"
     inkscape:window-y="-9"
     inkscape:window-maximized="1"
     inkscape:current-layer="g3" />
  <g
     fill-rule="evenodd"
     class="wd-icon-container"
     id="g3">
    <path
       d="M18 8a2 2 0 1 1-4.001-.001A2 2 0 0 1 18 8"
       class="wd-icon-accent"
       id="path2"
       style="fill:#4f63af;fill-opacity:1" />
    <path
       d="M16.228 12.714l-.728.436v3.614a.497.497 0 0 1-.276.447L12.5 18.573v-4l-3.204 1.602-1.471-1.471L9.427 11.5H5.384l1.33-2.773a.505.505 0 0 1 .418-.227h3.717l.435-.725c.021-.034 2.173-3.407 7.657-3.407.223 0 .45.005.675.011.289 5.99-3.24 8.243-3.388 8.335m5.354-8.929a1.49 1.49 0 0 0-1.361-1.367 16.72 16.72 0 0 0-1.281-.05c-5.826 0-8.543 3.205-9.206 4.132H7.132c-.873 0-1.695.465-2.165 1.254L3.238 11.35a1.494 1.494 0 0 0 .082 1.448c.276.44.751.702 1.27.702h1.601l-.316.632a1.49 1.49 0 0 0 .217 1.643c-.466.541-.958 1.394-1.069 2.678a.491.491 0 0 0 .524.524c1.285-.111 2.137-.603 2.679-1.069a1.518 1.518 0 0 0 1.642.217l.632-.316v1.508c0 .725.487 1.399 1.199 1.537.34.065.67.021.972-.13L16.118 19a2.5 2.5 0 0 0 1.382-2.236v-2.497c.995-.711 4.602-3.774 4.082-10.482"
       class="wd-icon-fill"
       id="path3"
       style="fill:#4f63af;fill-opacity:1" />
  </g>
</svg>
