<?xml version="1.0" encoding="UTF-8" standalone="no"?>
<!-- Created with Inkscape (http://www.inkscape.org/) -->

<svg
   width="68.309273mm"
   height="60.929607mm"
   viewBox="0 0 68.309273 60.929607"
   version="1.1"
   id="svg1"
   sodipodi:docname="Workday-RaaS.svg"
   inkscape:version="1.3 (0e150ed6c4, 2023-07-21)"
   xmlns:inkscape="http://www.inkscape.org/namespaces/inkscape"
   xmlns:sodipodi="http://sodipodi.sourceforge.net/DTD/sodipodi-0.dtd"
   xmlns="http://www.w3.org/2000/svg"
   xmlns:svg="http://www.w3.org/2000/svg">
  <sodipodi:namedview
     id="namedview1"
     pagecolor="#505050"
     bordercolor="#eeeeee"
     borderopacity="1"
     inkscape:showpageshadow="0"
     inkscape:pageopacity="0"
     inkscape:pagecheckerboard="0"
     inkscape:deskcolor="#505050"
     inkscape:document-units="mm"
     inkscape:zoom="3.626344"
     inkscape:cx="120.23128"
     inkscape:cy="118.16309"
     inkscape:window-width="2560"
     inkscape:window-height="1377"
     inkscape:window-x="1072"
     inkscape:window-y="272"
     inkscape:window-maximized="1"
     inkscape:current-layer="layer1" />
  <defs
     id="defs1">
    <rect
       x="166.55893"
       y="151.6679"
       width="102.3069"
       height="110.02817"
       id="rect1" />
  </defs>
  <g
     inkscape:label="Layer 1"
     inkscape:groupmode="layer"
     id="layer1"
     transform="translate(-20.52232,-52.952776)">
    <ellipse
       style="fill:#c87137;stroke-width:0.244053"
       id="path3-3"
       cx="48.647041"
       cy="83.34462"
       rx="31.866951"
       ry="30.464806" />
    <ellipse
       style="fill:#ffffff;stroke-width:0.244053"
       id="path3"
       cx="52.389271"
       cy="83.41758"
       rx="31.866951"
       ry="30.464806" />
    <path
       id="path2"
       style="fill:#0055d4;stroke-width:0.227835"
       inkscape:transform-center-x="-5.9272463"
       d="m 43.721509,62.885027 v 5.832052 L 69.18345,83.417802 43.721509,98.118079 v 5.832051 L 79.284746,83.417802 Z"
       inkscape:transform-center-y="-1.3745862e-06" />
    <path
       sodipodi:type="star"
       style="display:inline;fill:#0044aa;stroke-width:0.264583"
       id="path1"
       inkscape:flatsided="true"
       sodipodi:sides="3"
       sodipodi:cx="41.554504"
       sodipodi:cy="82.344208"
       sodipodi:r1="18.6103"
       sodipodi:r2="9.30515"
       sodipodi:arg1="0"
       sodipodi:arg2="1.0471976"
       inkscape:rounded="0"
       inkscape:randomized="0"
       d="m 60.164804,82.344208 -27.91545,16.116992 0,-32.233985 z"
       inkscape:transform-center-x="-4.6525745"
       inkscape:transform-center-y="-1.0374073e-06"
       transform="translate(0,1.0733719)" />
    <path
       style="font-size:96px;white-space:pre;stroke-width:1.7537"
       d="m 233.68359,239.25168 h -12.04687 l -23.34375,-27.75 h -13.07813 v 27.75 h -9.28125 V 169.4548 h 19.54688 q 6.32812,0 10.54687,0.84375 4.21875,0.79688 7.59375,2.90625 3.79688,2.39063 5.90625,6.04688 2.15625,3.60937 2.15625,9.1875 0,7.54687 -3.79687,12.65625 -3.79688,5.0625 -10.45313,7.64062 z m -21.70312,-50.15625 q 0,-3 -1.07813,-5.29688 -1.03125,-2.34375 -3.46875,-3.9375 -2.01562,-1.35937 -4.78125,-1.875 -2.76562,-0.5625 -6.51562,-0.5625 h -10.92188 v 26.34375 h 9.375 q 4.40625,0 7.6875,-0.75 3.28125,-0.79687 5.57813,-2.90625 2.10937,-1.96875 3.09375,-4.5 1.03125,-2.57812 1.03125,-6.51562 z"
       id="text1"
       transform="matrix(0.26458333,0,0,0.26458333,16.874247,47.188821)"
       aria-label="R" />
  </g>
</svg>
