<?xml version="1.0" encoding="UTF-8" standalone="no"?>
<!-- Created with Inkscape (http://www.inkscape.org/) -->

<svg
   width="68.309273mm"
   height="60.929607mm"
   viewBox="0 0 68.309273 60.929607"
   version="1.1"
   id="svg1"
   sodipodi:docname="Workday-Soap.svg"
   inkscape:version="1.3 (0e150ed6c4, 2023-07-21)"
   xmlns:inkscape="http://www.inkscape.org/namespaces/inkscape"
   xmlns:sodipodi="http://sodipodi.sourceforge.net/DTD/sodipodi-0.dtd"
   xmlns="http://www.w3.org/2000/svg"
   xmlns:svg="http://www.w3.org/2000/svg">
  <sodipodi:namedview
     id="namedview1"
     pagecolor="#505050"
     bordercolor="#eeeeee"
     borderopacity="1"
     inkscape:showpageshadow="0"
     inkscape:pageopacity="0"
     inkscape:pagecheckerboard="0"
     inkscape:deskcolor="#505050"
     inkscape:document-units="mm"
     inkscape:zoom="3.626344"
     inkscape:cx="120.23128"
     inkscape:cy="118.16309"
     inkscape:window-width="2560"
     inkscape:window-height="1377"
     inkscape:window-x="1072"
     inkscape:window-y="272"
     inkscape:window-maximized="1"
     inkscape:current-layer="layer1" />
  <defs
     id="defs1">
    <rect
       x="166.55893"
       y="151.6679"
       width="102.3069"
       height="110.02817"
       id="rect1" />
  </defs>
  <g
     inkscape:label="Layer 1"
     inkscape:groupmode="layer"
     id="layer1"
     transform="translate(-20.52232,-52.952776)">
    <ellipse
       style="fill:#c87137;stroke-width:0.244053"
       id="path3-3"
       cx="48.647041"
       cy="83.34462"
       rx="31.866951"
       ry="30.464806" />
    <ellipse
       style="fill:#ffffff;stroke-width:0.244053"
       id="path3"
       cx="52.389271"
       cy="83.41758"
       rx="31.866951"
       ry="30.464806" />
    <path
       id="path2"
       style="fill:#0055d4;stroke-width:0.227835"
       inkscape:transform-center-x="-5.9272463"
       d="m 43.721509,62.885027 v 5.832052 L 69.18345,83.417802 43.721509,98.118079 v 5.832051 L 79.284746,83.417802 Z"
       inkscape:transform-center-y="-1.3745862e-06" />
    <path
       sodipodi:type="star"
       style="display:inline;fill:#0044aa;stroke-width:0.264583"
       id="path1"
       inkscape:flatsided="true"
       sodipodi:sides="3"
       sodipodi:cx="41.554504"
       sodipodi:cy="82.344208"
       sodipodi:r1="18.6103"
       sodipodi:r2="9.30515"
       sodipodi:arg1="0"
       sodipodi:arg2="1.0471976"
       inkscape:rounded="0"
       inkscape:randomized="0"
       d="m 60.164804,82.344208 -27.91545,16.116992 0,-32.233985 z"
       inkscape:transform-center-x="-4.6525745"
       inkscape:transform-center-y="-1.0374073e-06"
       transform="translate(0,1.0733719)" />
    <path
       style="font-size:96px;white-space:pre;stroke-width:1.7537"
       d="m 226.65234,219.3298 q 0,4.07813 -1.92187,8.0625 -1.875,3.98438 -5.29688,6.75 -3.75,3 -8.76562,4.6875 -4.96875,1.6875 -12,1.6875 -7.54688,0 -13.59375,-1.40625 -6,-1.40625 -12.23438,-4.17187 v -11.625 h 0.65625 q 5.29688,4.40625 12.23438,6.79687 6.9375,2.39063 13.03125,2.39063 8.625,0 13.40625,-3.23438 4.82812,-3.23437 4.82812,-8.625 0,-4.64062 -2.29687,-6.84375 -2.25,-2.20312 -6.89063,-3.42187 -3.51562,-0.9375 -7.64062,-1.54688 -4.07813,-0.60937 -8.67188,-1.54687 -9.28125,-1.96875 -13.78125,-6.70313 -4.45312,-4.78125 -4.45312,-12.42187 0,-8.76563 7.40625,-14.34375 7.40625,-5.625 18.79687,-5.625 7.35938,0 13.5,1.40625 6.14063,1.40625 10.875,3.46875 v 10.96875 h -0.65625 q -3.98437,-3.375 -10.5,-5.57813 -6.46875,-2.25 -13.26562,-2.25 -7.45313,0 -12,3.09375 -4.5,3.09375 -4.5,7.96875 0,4.35938 2.25,6.84375 2.25,2.48438 7.92187,3.79688 3,0.65625 8.53125,1.59375 5.53125,0.9375 9.375,1.92187 7.78125,2.0625 11.71875,6.23438 3.9375,4.17187 3.9375,11.67187 z"
       id="text1"
       transform="matrix(0.26458333,0,0,0.26458333,16.874247,47.188821)"
       aria-label="S" />
  </g>
</svg>
