<?xml version="1.0" encoding="UTF-8" standalone="no"?>
<!-- Created with Inkscape (http://www.inkscape.org/) -->

<svg
   width="40.638103mm"
   height="40.638103mm"
   viewBox="0 0 40.638103 40.638103"
   version="1.1"
   id="svg1"
   xml:space="preserve"
   sodipodi:docname="faveicon.svg"
   inkscape:version="1.3.2 (091e20e, 2023-11-25, custom)"
   xmlns:inkscape="http://www.inkscape.org/namespaces/inkscape"
   xmlns:sodipodi="http://sodipodi.sourceforge.net/DTD/sodipodi-0.dtd"
   xmlns="http://www.w3.org/2000/svg"
   xmlns:svg="http://www.w3.org/2000/svg"><sodipodi:namedview
     id="namedview1"
     pagecolor="#ffffff"
     bordercolor="#000000"
     borderopacity="0.25"
     inkscape:showpageshadow="2"
     inkscape:pageopacity="0.0"
     inkscape:pagecheckerboard="0"
     inkscape:deskcolor="#d1d1d1"
     inkscape:document-units="mm"
     inkscape:zoom="2.0899411"
     inkscape:cx="76.317941"
     inkscape:cy="87.323036"
     inkscape:window-width="1350"
     inkscape:window-height="1237"
     inkscape:window-x="1724"
     inkscape:window-y="326"
     inkscape:window-maximized="0"
     inkscape:current-layer="layer1" /><defs
     id="defs1"><style
       id="style1">.cls-1{fill:#00e8fa;}</style></defs><g
     inkscape:label="Layer 1"
     inkscape:groupmode="layer"
     id="layer1"
     transform="translate(-84.947565,-126.59844)"><circle
       style="fill:#171f26;fill-opacity:1;stroke-width:0.315246;stroke-dashoffset:28.39"
       id="path3"
       cx="105.26662"
       cy="146.9175"
       r="20.319052" /><g
       id="Layer_1-2"
       data-name="Layer 1"
       transform="matrix(0.26458333,0,0,0.26458333,85.945787,132.01549)"><path
         class="cls-1"
         d="m 28.13,62.17 a 1.18,1.18 0 0 1 -0.31,0.26 152.77,152.77 0 0 1 9,-13 C 40.35,45 48.36,35.33 50.66,32.77 a 3.09,3.09 0 0 1 5.16,0.47 c 0.3,0.82 -0.12,1.13 -0.71,2.71 C 54.52,37.53 42.9,60 40.85,65.26 c 6.2,-8.21 28,-43.73 30.3,-46.85 2.3,-3.12 2,-3 4,-2.11 2,0.89 2,1.76 1.63,2.63 -0.37,0.87 -24.57,46.45 -22.33,48.65 4.29,0.08 25.36,-29.61 26.09,-30.52 0.73,-0.91 1.3,-1.79 3.06,-0.9 1.76,0.89 2.31,1.31 1.27,3.5 -1.04,2.19 -23,41 -23.16,43.72 -0.16,2.72 -0.39,3.94 -2.61,3.68 -2.22,-0.26 -2.46,-2 -2.17,-3.82 C 57.22,81.42 69.48,59.66 70.08,58 66.23,61.51 56.41,75.7 51.4,72.34 46.72,69.2 53.75,57.21 57.71,47.28 44.54,69.53 34.45,79.52 32.16,82.88 c -2.29,3.36 -4,2.26 -4.68,1.85 -0.68,-0.41 -3.39,-2.35 0.5,-5.32 3.89,-2.97 17.28,-31.9 18.47,-36 -4.87,4.63 -8.41,11.9 -12,15 -3.59,3.1 -4.97,2.97 -6.32,3.76 z"
         id="path1"
         style="fill:#00e8fa;fill-opacity:1" /><path
         class="cls-1"
         d="m 142.62,77.32 c -2.52,-0.59 -2.66,-1.4 -16.21,-3.47 -13.55,-2.07 -10.11,-2 -12.78,-1.61 -2.67,0.39 -2.82,0.3 -3.11,-0.81 -0.29,-1.11 0,-1.78 -0.82,-2.3 -0.82,-0.52 -3,-1 -4.14,-0.29 -1.14,0.71 -0.37,2.22 -2.45,3.25 1.26,-1.55 0.74,-4.07 -1.26,-4.44 -2,-0.37 -3,0.22 -3.78,1.93 a 31.63,31.63 0 0 1 -4,5.68 c -1.26,0 -3.12,-0.12 -4.22,-0.2 0,0 0,-4.3 -2.63,-6.08 0.81,-2.44 5.41,-12.81 13.18,-29.33 A 225.55,225.55 0 0 1 121,5.35 c 2,-2.61 1.78,-4.16 0.28,-5 -1.5,-0.84 -2.17,-0.33 -4.11,3 A 314.05,314.05 0 0 1 98,31.72 227.18,227.18 0 0 1 74,59.05 c -4.61,1.64 -4.45,3.64 -3.61,5.17 0.84,1.53 2.93,1.16 4.53,-0.14 C 78,61.58 95.48,41 95.48,41 c 0,0 -10.15,22.28 -12.33,27.13 -3.56,0.37 -7.59,3.22 -8.67,6 C 39.19,72.42 21.48,72.81 14.77,72.91 6.12,73.51 0.56,73.07 0,75 c -0.56,1.93 4.3,4.3 5.7,3.7 1.4,-0.6 0.74,-1.55 0.74,-1.55 0,0 2.15,-0.74 17,-0.89 14.85,-0.15 48.92,1.15 48.92,1.15 0,0 -16.18,25.8 -18.88,37.72 -2.8,12.31 1.29,11.9 8.59,3 4.9,-6 20.83,-37.58 21.18,-40.07 l 2.78,0.11 a 14,14 0 0 0 0.56,7.11 C 88,88.69 91,88 92.56,86.09 c 1.56,-1.91 1.88,-2.74 3.25,-5.62 0.19,0.48 0.26,0.66 1.82,1.14 1.56,0.48 3.67,-0.92 5.15,-2.66 10.29,0.59 23,1.68 25.76,1.78 2.76,0.1 5.33,0.34 11.56,0.81 6.23,0.47 5.03,-3.63 2.52,-4.22 z M 56,119.8 c 0.41,-5.49 3,-11.69 5.64,-17.89 3,-7.1 4.39,-11.57 7.06,-16.52 1.37,-2.55 4.33,-7.26 5.85,-8 1.58,0 4.65,0.36 4.67,0.39 C 79.26,78.1 67.37,107 56,119.8 Z M 80.74,74.55 a 28.67,28.67 0 0 1 -2.9,-0.21 16.23,16.23 0 0 1 3.68,-1.88 C 81.23,73.19 81,74 80.74,74.55 Z m 4.09,0.19 A 11.57,11.57 0 0 1 85.61,73 4.48,4.48 0 0 1 85.94,74.72 Z M 90,82.32 a 18.93,18.93 0 0 1 0,-3.94 l 2.19,0.22 A 18.72,18.72 0 0 1 90,82.32 Z m 15.34,-6.24 1.16,-1.33 c -0.2,1 0,1.18 0.79,0.28 -0.23,0.69 0.35,1.08 1.76,1.53 a 30.13,30.13 0 0 1 -3.69,-0.48 z m 7.16,0.57 c 0.83,-0.89 5.55,-1.15 18.71,1.63 a 104.9,104.9 0 0 1 -18.69,-1.63 z"
         id="path2"
         style="fill:#00e8fa;fill-opacity:1" /></g></g></svg>
